<svg xmlns="http://www.w3.org/2000/svg" xml:space="preserve" width="786.2" height="360.5">
  <path fill="#9EC7F3" d="M0 0h786v360H0z"/>
  <g fill="#F7D3AA">
    <path d="m635 342-1-1h1v1zm2-18v2l1 1v1l1 1v-4h-1 1v-1h-1 1l-1-1 1-1h-1v1h-1v1-1h-1l1 1zm1 11h1v-1h-1v-1h-1v1l1 1zm13-1h1v-1h1-2v1zm1-2v-1h2-1v-1 1h-1v1zm26 8h-1 1zm-1 1h1-1v-1h-1v1h1zm3-3h1-2 1zm-79-11 1 1v3l1 1v2h2v1h1l1 1h-1 2l1 1h1l1 1 2-1 2-1v-1h2v-1l1-1v-1l1 1h1v-1 1l-1-1h1v-1h1v-2h-1v-1h-1v-1h-2v-1h-1l-1 1v1l1 1h-1v-1l-1-1-1 1-1 1v1-1l-1-1h-1l-1 1h-2v1l-1-1v-1 1h-2l1-1v-1h-1v1-1l-2-1v-1 1h-1v1zm-5 9v1h2l1-1h3l1 1h2v-1h1l-1-1-1-1v1-1h-1v-2h-1v-2l-1-1v-1h-1l-1 1v1h-1v4h-2v2-1l-1 1h1zm103-2h1v-1h2v-1h1v-2 1h-1v1l-1 1h-1v-1 1h-1v1h-1 1zm-4 1h1v-1h-1v1zm9-5 2-1v-1l1-1v-1h1v-3 1h-1v2h-1v1l-1 1v1l-1 1zm-6 10v1h1v-1h1l1-1h-1v1h-1v-1 1h-1zm6-4h-1v2-1l1-1zm5 6v-1 1zm-4-6h-1 1l1-1h-1v1zm-516-22h-2v1h2v1-3 1zm513 46h1v-1l1-1v1l1-1v-1h-1v-1l1-1v1h1v-1h-2v-1h-1v-2l1 1h1v-1h-1 1v1h1v-1h-1l1-1h1v-1l1-1v-2h1v1h-1v1h1v-1l2-2h1v-1h-1v-1l-1-1h-1l-1-1-1 1h1v1h-2v-1l-1-1v-2h-1v-1 1l-1-1h2v-2 1h-1v1l-1-1v1h-1v1h-2v1l-1 1h-1v1h4v1l-1 1v1h-1v1h-4v-1h-1v-1h1v-1h1l-1-1v1h-1v-1h-1 1v-1h1v-1l-1 1h-2v1h-1v1h-1v1-1l-1-1v-1l1-1 1-1h1v-1h1-3 1l1-1 1-1v-2h-1v2l-1 1h-2v1h-2v1h2-1v1h-1v-1l-1 1h-3v1h-1v1h1v1l-1-1h-1v1h1-1l-1-1v1h-1l-1-1-1-1h-2v-2h-1v-1h-1l-2 1v1-1h-1v1l-2-1h-1l-1-1h-1v1h-1v1-3h-1v-1 1h-1v-1h-1v1h-2l-1-1v-1h1l1-1h-3v1h-2v1l-1-1h-1v1-2 1h-2v-1h-1v1-1h-1 1v-1h-1v1h-2v-1l-1-1-1-1 1-1h-1l-1-1v-1h-1v-1h-1v1h1l-1 1v-1h-1v1l-1 1h-2v-1l-1-1v-1h-1v-1h-1v-1 1h-1v1-2l-1-1h-1v2-1h-1v-1h-1v1h1v4h-1v-2 1-1h-1v-1h1v-1h-1v1-1h-1v-1h-1v2h-1v-1h-2 1v1h-1v1h2v1h1v1-1 1h1v1h1v1l1-1h1v-1h4l1 1v1h1v1h1l1 1-1 1v1h-1 1v5h1v1h1-2v-1h-1l-1 1h-1v3h-1v1-1h1v-1h-1v-1h-2v-1h-1v1h-1v1h-1l-1 1v-1h-2v-1h-1v1h-8v-1h-1v-3h-1v3h-1v-1l-1 1v-1h-2v3h1v1l-1-1h-2l-1 1v1h1v1h1-1v1h1v1l-1-1v1l-1-1h-1v-2l-1-1h-2v4h-1 1v1h2-3v-1l-1-1v1h1-2v1h-1v3l-1 1h-2v-1 1h-1v4h1l1 1h103zM525 281h1l-1 1h-3v1h-2v-1h2v-1l1 1 1-1h1m-5-4v1h2v-3l-1 1-1 1zm0 5h-2l-1 1h-3l-1 1v1h4v-1h2v-1h1v-1zm-23 14h2v2h1v-2h1v-1h1v-3l-1 1h-2l-1 1h-1l-1 1h-1l1 1h1zm28-12-1-1v-1h-2v1h-2v2h-1v1h1v1h1v-1h1l1-1v1h1v-1h1v-1zm-3 2h-1v1h-1l-1 1v1h-1v1h1v2h1v1h1l1-1 1 1v-2h-1v-1h-1v-1l1-1h1v-3l-1 1zm9-4v2h5v-1 1h3v-1l1 1h1v-1h1l-1-1-1-1h1-1v-1h-1l-1 1h-1v-1h-4v1h-2v1zm-16 11h2v-1h-1 1v-1l1-1v-1h-1v-1l-1-1v-1h-1v-1h-2v1h-1v1l-1 1-1 1v2h1l1-1h1v-1l1 1v2h1v1zm4-1v-2h-1l-1 1v1h-1 1v1h-2v-1h-1v1l-1-1v1h-1v-1l-1 1v2h1v1l1 1h1l1-1h1v-1l1-1h1l2-1v-1h-1zm1-8v-1h-1v1h-2v1h-2v1h1v1l1 1v1h2v-1l1-1v-1h-1v-1h1v-1zm11-2v-1h-6 1l-1 1h-1v1l1 1v3h1v1h1v1h1l1 1 1-1h1-1v-2h-1v-2h1v-1h1v-2zm-2 8-1-1h-1v-1h-1v-1h-1v-2h-1v1h-1v2h-1l-1 1v1l1 1h1v2l1-1h2v-1l1 1v-1l2-1zm11-6-1-1v1h-3v-1 1h-6v1h-1v2h1v2h5l1-1h1v-1l1-1h1v-1h1l1-1h-1zm10-5h-1v-1h-1v1h-2l-1-1h-1l-2 1-1 1h-1v1h1-1l1 1 1 1h-1v1l-1 1h3l1-1h1l2-1 1-1 1-1 1-1v-1zM786 225l-7-3v-16l-1-13 1-4v-7h1l1 1h3v1h2v41zm0 0-7-3v23h-1v1l-1 1h1v2h-1l-1 1h1v1h-1 1v2l1 1h1v37l2 2h2l1-1h2v-67zM160 116h-1l-1-1h-3v2h2v1h1l1-1h1v-1h1-1zM340 67h1v1-1 3h-1l-1 1-1 1h-1v-1l-1-1-1-1v-1h-3v-1h1v-1h-1v-2h-1v-1h-2l-1-1h5l1-1h2l1 1h1v2h1v1h1v2zm5-11v-1h1v-1h-1l-2 1-3 2v3h1v-1h2l1-1v-1l1-1zm5 10v-1h-1v-4l-1-3h-1v-1h-1l1 1h-1v1h-1v-1 4l1 1v3h3v1h1v-1zm-10-7v-2l-2 2-1 1-1 1 1 1h1v2h1v1h1v2h1l1-1v-1h-1v-4l-1-1v-1z"/>
    <path d="M165 114h1v1h-1v1h-3v-2h1v-1h-1v1h-1v-2h-1v-1 1l1 1v2h-2l-1-1h-1v1h-2l-1 1h-1v2l-1-1h-1v-3h-1v-1h-1l-2-1-2-2h-2l-1-1v-1h-3l-1-1-1-2h-1 1-1v-1h-1l1-1-1-1h1v-3h1v-1h1v-1h-1 1v-3l1-2v-1l1 1h1l2 3 1 1 2 1h1l2-1h3v1l2 1v-1h1-1v-2l1-1v1h2v1l1 1v1l1 1 1 1v2l1 1v1l1 1v1h1v2l1 1v2h1v3m-56-39v-1l1 1h-1 1v1h1v-1 1h1v1-1 1l1-1v1h2v1h1v-2h2v1h1v1-1h1v-1h1l-1-1h1v-1h-1v-4h-1v-1h-1v-3l-1-1h-1v-1h1v-1h-1 1v-2h-1v-1h1v-2h1v-4h1v-3h1v-1h1v-1 1h2v-3h-1v-4l-1-1v-1h-1v-1h-1l-2 1h-1v1h-1l-1 1v1l-1 1h-1v-1h-1v-1h-1v-1 3h-1 1v1l-1 1h-1v3h-2v1h-1v1l-1 1v1h-2v-1h-2v3h1v1h1v1h1v1h1v2h1-1v1-1 2h1-1v2h-1v2h1v3l1-1v1h1l1 1v1h1-2l-1 1v1h1v1h3zm-7-22h-2 1v-3l-1-1v-3h3v7h-1zm-3-5h1l-1 1v2h-2v-3h2zm3-2h-2l-1-2h1v-6h-1v-1l-1-1v-1l-1-1 2-2v-1h1v-1h2v1h3l1-1v1h1v2h1v1h-1 1v1h1l1-1 1 1h1v1h-1l1 1v3h-1l-1 2v3h-1 1v1l-1 1h-1v3h-2v1h-1v1l-1 1v1h-2v-1h1v-7h-1zm-5-12-1-1v-4h1-1v-2h2l1 2 1 1v1h-1v1l-2 2zm-5-1v1h-1v-1 1h-2v-1h-1v-2 1h1v-1 1h1v-1h2v2l-1 1-1 1v1h1v-2l1-1zm71 60v1h1v-3h-1v2m-41-5h-1 1v-1h-1v-2h2v3h-1zm0-44v3h1v3h-2v-1 1h-1v1h-1v3h-1v4h-1v2h-1v1h1v1h1v1h1v-1h1v1h2v-1h1v-2h1v-1 1h1v2h1v-2l1-1v1-1 1h1l1-1v1l1 1h3v-1h2v1h1v-1h1v-1h1v-1l-1-1h-1v-4h-1v-1h-1v-2l1-1h-1v-6l2-1v-2l-2-4h-1l-1-1h-3l-1-1v3l-2 1v3h-1v1h-1v1h-1v-1h-1v2zm14 59-1 1-2-1-3-1-1-1-1-1h-1v-1h1v-1h2v-1h1v1h1l1-1h1l1 1h2v1h-1v3h-1l1 1zm-8-4h-2v-1 1h-1v-1l-1-1v-1h-1v-5h2v-1h1v-2h1-1v-1h1v-1h-1v-2h1v1h1v1h2l2 1h2v1h1l3 3h1v1l-1 2v3h-1 1v1h-3l-1-1h-1l-1 1h-1v-1h-1v1h-2v1zm23-30v1h-1l1 1v2h-1v5l1 1 1 1h-1 1l-1 2v3h1l-1 4v1l1 1 1 1 2 2-1 1v2h1-1v1l-2-1v-1h-3l-2 1h-1l-2-1-1-1-2-3h-2v-1h-1l-3-3h-1v-1h-2l-2-1h-2v-1h-1v-1h-3l-1-1v-1h1l-1-1v-1h1v-2h-1v-1h-2v-1h-1v-6h-1v-1h-1v-3l-1-1h-1v-1h1v-1h-1 1v-1h1v1h1v-1h1v1h2v-1h1v-2l1-1v1h1v2h1v-2l1-1v1-1 1h1l1-1v1l1 1h3v-1h2v1h1v-1h1v-1h1l1 1v1h3v2h-1v1h3v3-1 1h-1v2l-1 1h3l1 1h1v1-1 1h1l1 1v1l1-1v-1h-1v-3h2zm-29 19h-1 1v-1h-1v-2h2v3h-1zm0 2v1-2l1 1h-1zm-7-2h-1 1zm1 0v1h-1v-1h1zm7 7v1h-1v-1h-2v-1h-2v-2h-2l-1-1h1-1v-1l1-1h1v-1l-1-1v-2l-1-1v-1h-1v-1l-1-1h-1v-2h-1v-1h-1v-1h-1v-1h-2v-1h2v-1h1v2h1v-1 1h1v1-1 1l1-1v1h2v1h1v-2h2v1h1v1-1h1v-1h1v1h2v1h1v2h-1v1l1 1h-1v1l1 1h2v2h1v2h-1v2h-1v1h-2v4zm13-53v-1l1 1h1v1h1l3 3h1l1 1 2 2 2 3v1l2 3 1 2v2l1 3v1h-1l1 1v3h-1v1h-2v3h1v1h-1v1-1h-1v-1h-1v-1 1-1h-1l-1-1h-3v-1h1v-2h1v-1 1-2l-1-1h-2v-1h1v-2h-3v-1l-1-1v-1l-1-1h-1v-4h-1l-1-1v-9l2-1zm248-14h2v-2h-1v1h-1v1zm-5-8v-3h1v-1h3v1l-1 1v1h-2v1h-1zm-3-1h-1l1-2h1l1-1v1h-1l1 1h-2v1zm-28 32h-1l1-1v-1h1v2h-1zm49-9v-1h1v1h-1zm-4 27h-3l-1-1h2v1h2zm14-5v1h-1v-1h-1 2zm-3-2h-2v-1h-2 2v-1h1v1h2-1v1zm12-12v-1h-1v-1h-1l-1 1h-1l-1-1v1h-1v-1h-1l-1-1v-1h-1l-1-1h-1v1h-1v1-3h1-1l-1-1-2-1h-4v2l-1-1v1-1h-1v1h-1l-1-1v-1h3l1-1-1-1v-1h-1v-1h-1v1h-1l-1 1h-1v-1 1h-4l-1 1v-1h2l1-1v-1h-1 1v-1l-1-1v-1h1v-1h1v-3h-1v-1h-2v-2l-1 1-1 1v-1l-1-1h-1l-1-1v-4l-1-1h-2v1h-1l1 1v1h-1v1l-1 1-1 1h-1v1h-1v-1l1-1v-5h-1v-1 1h-1v2h-1v3h-1l-1 2v1h-1v1h-1l-1 1v1h-1v1h-1 1v1h-2v1h-1v2l-1 2v2h-2v2l-1 1v1l-1 1h-2l-1-1v1h-1v-1l1-1h-1v1l-2 1v1h-1v1l-1 1h1l1 2h2v2l-1 1h-1v1h-1 4v4h-1v6h1v1h1-1v3-1h1l1-1 1-1v-1h2v1h1v1l1-1 1-1h4l1 1h1v-1h1v-1l1 1v1-1l1 1v-1h2l1 1 1-1 1 1 4-1h1v1l2 1 1 1h3v-1h1v-1h-1v-2h1v1h2v1h1l1 1h2l2-1h2l1-1h4v-1h1-1 1v-1h-1l1-1h-1l-1 1v-1h-1 1v-1h-2v-1h-1l-1-1-1-1v-1h-1v-1l1-1h1v-1h3v1h1v1-1h5l3-1 3-1 1-1v-1h1v-2zM123 90h-1v1-2l1 1zm232-21v-1l1-1-1-1h-1v-6h1v-4h-4v1h-2v-1h-1v1h-1v1h1l1 3v4h1v2h-1v-1h-3v-3l-1-1v-5h-1v1l-1 1h-2l-1 1 1 1v4h1v1l-1 1v1-1 3l-2 1-1 1h-1v-1l-1-1-1-1v-1h-3v-1h1v-1h-1v-2h-1v-1h-2l-1-1h-1l1 2v1h-1v2l-4 5-4 4h-1v2l-1 1h-1v2l-2 1v1l-1 1h-1v1l-1 1-3 1h-1l-1 1h-2l-5 1-4 2h-6l-1 1-2 1-1 1v3h1v1h-1v-1h-1v1h1v1h1v1h-1v-1h-1v1h-1v-1h-1v-1l-1 1v3h1-1v1h3-1v1h-1v-1 1h-1v2l-1 1v1h-1v1h1-1v1h1v1h1l1 1h-2v-1h-2v3l1 1h1l1 1v-1h2v1h1l-1 1v-1h-4l-1-1-1-1-1-1h-2v1h-1v1h-1l1-1v-1h-1l-1-1h-2v-2h1-2v1h-1v-2h-1v2l-1-1v1h-1v-1h-3v1h-1l-1-1v-1h-2l-1-1-1-1v-3 1l-1 1-1 1v2h2v4l2 1v1l1-1v1l1 1v-1 1h1v1l1 1 1 1h2v1l1 2h1l1 1 1 1h1v1h1l1-1h3v-1l1-1h2l4-1 2 1h3v1l1-1h4l2-2h3l1-3v-2l2-1h2v-1h7l1-1v1h2v2h-1 3l1 1h2l2 1h2l1 1h1l3-1 1-2 3-1 1 1h1l3-1h1l1 1h1v-2h1v-1l1-1v-3h2v-1h1v-2h-1v-1l-1-1 1-1v-1h2v-2l1 1v-1h1l1-1h1v-1h1v-1h-1v-1h-1v1l-1-1h1v-1h-1v-1h1v-3h1l1-1v-1h1v1h1l1-1h1v-1l1-1h-1v-1l1-2v-1h2l-1-1v-7h-1v-1h1l1-1v-3zm-72 28v-5 1h1v7-1h-1v-2M420 59v1l-1 1v-4 1l1 1zm5-1v1h1l-1-1zm0 0v-1h-1 1v1zm0-4v-1l-1 1v1-1h1zm7-3v-1h-2v1h-2v1h-1l-1 1h-1v2-1h3v-1h2v-1h1v1h1v-2zm11-8v1-1h1-1zm-1 1h-1 2-1zm18-6h-1l-1-1v1l1 1 1-1zm-17 8h-1v1h1v-1zm-5-13v-1l-1 1v1h-1v1h1l1-1v-1zm10 9v-1h-1v1h2-1zm3-3h-1l-1-1v1h-1v-1l-1-1h-2v1h-2v3h1v-1h2v1-1h3v1h1v-1h2v-1h-1zm64-12h-1v-1l-4 1h-1l1 1h-2v-1l-1-1h-1l1-1h-1v-1h-1v1h-1v1h-1v1h-4v-1h-4l1 1v3h-1l1 1v2l2 1v1h1v1h2l-1-1v-1h-1 7v-1l-1-1v-4l1 1 1-1h1l1 2 1-1h4l1-1v-1zm4 21h-1l-1 1h2v-1zm4-12v-2h-1v-3l-1-1h-1l-1-1v-1 1h-1v-4l1-1 1-1v-1l1-1h1v-1h1v-1l-1-1h1v-1l-1 1h-2v-6h-4v4h-1 1v2h-1v1h1v1h1v2h-1v1l-2 2v2h1v1l-1 1v3h1v1h3v1-1h1v1h1v7h-1v1l-1 3h-1v1h1l1-1 1-2 1-2 2-2v-3zm15-19v-7h-1l-1-1-1-1V7h-1V6h-1V5h-2v3l1 4v3l1 1v1l-1 1-2 2-2 1v2l1 1 1 1v6h1v3h1v-7l1-1h-1v-1l-1-1h1v-1l1 1v1l1 1v-2h-1v-1l1-1h2v-2h1v-1h1v-1h1v-1h-1zm-18 20v-3h-1v-1h-1v1-1h-3v-1h-1v-1 1h-1v1l3 1v2h-1 1l-1 1h1v2l-1 1v3h1v1h1v2-1h1l1-3v-1h1v-4zm-4-1h-1 1v-2l-3-1v-1h1v-3h-4l-1 1-1-2h-1l-1 1-1-1v4l1 1v1h-7l1 1 1 1v-1l2 1 2 1 2 1h1l1 1h3v-1 1h1l1-1v-1h2-1l1-1zm-4 3v-1 1h-3l-1-1h-1l-2-1-2-1-2-1v1l1 1 2 1h1v1h1l1 1h2l2 1h2v-2h-1zm-46-11h-1v-1h-2v-1h-1l-1 1h-2l-1 1v1h1v1l2 1v1h1l1-1h2v-2h2v-1h-1m69-23 1 1h-1v2-1h-1V6h-1V5h-2v3l1 4v3l1 1v1l-1 1-2 2-2 1h-1 1-1v-1l-1-1v-3h-1l-1 1h-1v1-1l-1 1h-2v-6h-4v4h-1 1v2h-1v1h1v1h1v2h-1v1l-2 2v1l-4 1h-1l1 1h-2v-1l-1-1h-1l1-1h-1v-1h-1v1h-1v1h-1v1h-4v-1h-4v-1 1-1h-1v-2l1-1v-2h1v-1h1l1-1v-1h1v-2h-2v-1l-1-1v-1l-1-1h-1l-1-1h-2l-1-1V8h-4v3l-1 1h-1v1h1v1h1v1l-1 1v-1h-1l-1-1v-1h-1v1h-1l-1-1v-1h1v-1h-1v-1l-1 1v2h-1v1h-1v-1h-1v1h-1V9h-4l-1 1v1l-1 1v2-1h-1v1h-1v1h1v1h-1v1h-1v3h-1v1l-1 2-1 1-1-1h-1l-1-1v-4l2-1v-3h1v-1l1-1h-1V9l1-1 1-1V6h1V5h1l2-1h2l1-1h1V2v1h4l1-1V1h-1V0h16v3l-2 1h-1v1h-1v1h1l1-1 2-2h1V2h5V0h36v1h-1v1h1l1-1v3h-1v1z"/>
    <path d="M81 29v1h-1v-1h1zm7-2v1h-1 1-1v1l1 1h1v-1l-1-2zm9-1v-3h-2v-2h-2v-1h-1v1l-1-1h-2 1-1v1h-1v1l1 1h-1v1h1l1 1h1v1h1v1h1v2h1v1h2-1v1h1v-2h1-1v-2h1v-1zm15 2h-1v-3h1v-1h-2l-1-1h-2v-1l-3-3v-1 1h-1v1h-1v-1h-2v-1h1-1v-1l-1 1-1 1h-2l-1 1h-1l1 1v2h2v4h1l1 2 1 1h2v1h3l1-1v1h1v2h1v1h1v-3h2v-1h1v-2zm9 2v-1l-1 1v-1h-4v-1h-1v-1 1l-1 1h-1l-1-1v2h-1v1h-2v3h-2 1v1-1 1h1l1-1 1 1 1-1v2h-1l1 1v3h-1l-1 2v1h1v1h1v1h1l1-1v-1l1-1h1l1-1 2-1v-2h-1v-2h-1v-2l1-2 1-1h1v-1h1zm7 4-2-2-2-1-1-1v-1h-1v-1h-2v1h1v1h-1v1h-1l-1 1-1 2v2h1v2h1v2h1v1h1v1l1 1v-1h1v1h1v-1h1l1-1v-2l2-1v-4zm-6-6-2-3-1-1h-1l-1-1h-2 1v1h-6 2v1h-1v3h2v1h1l1-1v-1 1h1v1h4v1l1-1h-1v-1h2v1h1v1l-1-2zm-18-10-1 1v-1h-2v-5h-1v-1h-1v1h-1v-1h1V9h-2l-1 1v2h1v2h1v2h2v2-1 1h-1l-1 1h-2l-1 1h-1l1 1h-2v-1h-1v1l-1-1h-3v-1l-1 1v-1h-1v-2h1v-1 1h-1v-1h-1v1h-2v-3l-1-1v-1h-1v-2h-1l-1-1v1h-1V9l-1-1h1V6v1h-1V6h-1V4h-1v1h-1V4v1h-1V2l-1-1V0h26l1 3 1 5 1 6 1 2 1 2h1zM68 1v1l-1 1V2v1l-1-1h-1V0h3v1z"/>
  </g>
  <g fill="#FFFFD0">
    <path d="M740 252h-1v-1h1v1h1l1 1-1 1h-1v-2zm-1 25 1-1v-1h2v-1h2v-3l1-1v-2l1-1v-1h1l-1-1h-2v-1l-1-1-1-1h-4l-3 1-2 1-3 1-1 1v1l-1 1-1 1v1l-1 2-1 1v1l-1 1-1 4v1l2-1h8l1 1 1-1h2v-1h1l1-1zm5 1h-1v-2l-1-1-1 1h-1v1l-2 1v1h6v-1zm-68-121v1h2l1-1v-1h-1v1h-1 1v-2h-2v1h-1 1v1zm6 7h2-4 2zm19 4v-1h-4l-1-1v1l-1-1h-7l-1-1h-1v1h1v1h3v1-1h1v1h3v1h2v1h3v1h1v-1h2l1 1h2l-1-1h4v-1h2v-1h-9zm-15-16h1l2 2h1v-1h2v3h1v3h2v-1l1 1h4l1-1h1v-1h-2v-1l-1 1-1-1v-1h-1v-1l-1-1-1-1-1-1h-4v-1l-1 1v-1h-3l-1-1v2l1 1zm-19-25h1v-1h-1v1zm112 134v-7h-1l-1-1v-2h-1 1v-1h-1l1-1h1v-2h-1l1-1v-1h1v-39l-1-13 1-4v-7h-1v1h-3v-1 1h-1l1-1v-1h-1l-2-1h-2l-1-1h-1 1v1h-2l-1-1-1-1h-2l-3 1h-1v-1l-2-1-3-1h-1v-1h-1l-2-1-3-1-2-1h-2l-1-1-1-1-1-1h-1v-1h-4l-2-1-2-1h-1l-1-1h-1v-1h-3l-4 2h-1l-2 2-4 1v2h1v1h1-1v1h1v1h-4l-1 1-1 1h-2v1l-1-1v1l-1-1v1h-1v-1h-3l-1 1v2h-1v3h-1v1h-2v1h-1v1h-1v2h-1v2h-1l-1 1h-1v2h-2v1h-1v1l-1 1h-2v1h-1v-1h-6v-2l-1 1v-1h-1v-6 1l-1 1h-1v-1l-1-2v-1h-1v3l1 1 1 1v2h1v2l1 1v4h1v1h1l1 1h1l1 1v3h-1l-1 1h-2l1 1h-1l-1 1v1h-2l1 1h2l1 1 4 2v1h1l1-1h2l2 1h7v1h1v1h2v1h4v1h1l1 1 2 1h1l1 1v-1l1 1h1l1-1h1v1h-1l1 1h1v-1h1v1h1l1 1v-1h1v1h1v1h2v1h2v1h2v1h2l-1 1h1v1l1-1h1l-1 1 1 1h1v1-1h1v-1 2h1v1h-1v3h2v-1h3-1l-1 1-1 1 2 1h2-3v1l2 2v4h1v1l1 1 2 2 1 1 1 1 2 1h-1l-1-1h-1v1h1v1h1l1 1h2l1 1 1 1h2v1h-1l-1-1h-1v-1h-1v-1h-1l-2 1h-3l-1 1 2 1 1 2h2v1h3v1h1v-1h2v-1l1 1h-1v1h-4v-1h-5v1h1l1 1h1l1 1v2h1v1h2v1h-1v4l-1 1h-1v3h-1v2l1 2 1-1 2-2h1l1-1v-2h1v1-1h-1l1 1v3h5l1-1h5l1-1h1v-3h2l-1 1h-1v2l-1 1v1l1 1 3 3h1v1h2l1 1v1h1l2 3 4 4 1 1h1v-30z"/>
    <path d="M655 180v1h-1v-1h-1l1-1v1h1zm-15 17v1-2h-1v1h1zm-24-76zm0 1zm-22 24-1 1h-1v-1h2zm77 34v-3h1v3h-1zm-3-5-1-1 1-1v-1h1v2l-1 1zm-2-6h-1l1 1h-1v1-1l1-2v1zm-11 41v1h1-1v-1h-2l-1-1h-1v-1h1v1h2l1 1zm-33-27h1-2 1zm-31-12-1-1h1l2-1h1l1-1h4l1-1h1v1l1 1v2h-1l1 1-1 1v-1h-1v1h-5v-1h-3v-1h-1zm1-12h-1l2-1h1v1h-1v1h-1l1-1h-1zm21-4v2l-1 2v2l-1 1v-1h-2v-1h-1v-1h-1v-3l-1-1 2-1h3v1-1h1l1 1zm-9-1h-2l1-1v-1 1-1 1h1l1-1v1l1-1v1h2v-1l1 1v-1h-1 3-1v1h-1l-1 1h-4zm1-6v-1h-1v1h-1v-2h1v1l1-1h2v1l-1 1h-1zm-5-5-1-1h3v-1 1h-1v-1 1h-1v-1h1v-1 1-1h1v1-1h5v-1 1h1v-1h1l2 1h4v1h1l1 1v1l1 1h-1v1h-3v-1h-1v1h-2v-1h-1v-1h-2v-1l-1-1v-1 1-1h-2l1 1v1h1v1l1 1h3v2h-4v-2h-2v1l-1 1v-3h-1v1h-1v-1 1h-1v-1h-1zm81 62h-1l-1 1h-2l1 1h-1l-1 1-1 1h-1v-1h-1v-1h1l-1-1v-1h5-1v-1 1h-1l-1-1h-2v1h-1v1h-2v-1h-1v-1h-2 1v1h-1 1v1h-1l-1-1h-1v-1h-1l1-1v-1h-1v1h-1v-1l-1 1h-1l-1-2-1-1v-1l-1 1h1v1l-1-1h-1v-1l-1-2v-1h1v-4h1v-1h1l1-1v1h1-1v-3h-1v1l-2 1v1h-1v5h-2v-1 1h-1v1h2v2h-1l-2 2v1l1 1v1h-1v1l-2 2h-4l-1 1-1-1h-1 1l-1-1-1-1v-1 1-3l-1-2h2v-1h1v-1h-1v-1h-1v-3h-1v1h-1v-1h-1v-2h-1v-1h-1v-1h-1l-1-1h-1v-1h-6v-1h1l-1-1h1-1v-1h3l1-1h-2 6v1-1h2l1 1 1 1h1l1-1h1v-1l1-1v-1l1-1h1v-1h2v-1l1 1v-1h1v1h1v1h1v3-2l1-1v2-2h1v1h1v-1h1v1h1v1h-1v1h1v-3h1v1l1 1v-3h-1l1-1 1 1v-1h2-2v-1h1-1 1v-2 1h-2v-1h2v-1h-1 1v-1h-1l-1 1h-2v1h-2v-1 1h-9v1h-3l-1-1v1h-2v1-1h-1v-1h-1v-1 1h-2l-1 1h-2v-1l-1-1-2-1h-1v-1h1v-1h1-1l-1 1v-1h-1v-3h-1 1v-1h1v-1h-2v-2h1-2v1h-1v-2 1h-1v-1h-4v-1 1h-1v-1h-1 1-1v-1h-2 1v2h-2v-1h-4v-1h1v-2h1l1-1h1v-1h1v-4h1l-1-1 1-1h2v-1h2v1h-1 2l3-1 1-1h1v-1h1v-1h2v-1l1-1h1l1-1h7l4 1h1v1h2v1h1l2 1 1 1 1 1h10l1 1h1v1h1v1h-2v3h1v1l1 1 1 2h1l-1 2v2h-1v1h-1v1h-1l1 1v5h1-1v2h1l-1 1h1v3h1v1h1v1h1v2l1 1v2l1 1 1-1v-1h-1v-4h1v-1h1v1h1v4h-1v3h1v1l1 1v2h1l1 1v4l1 2v1h1l1 1h1l1 1v3z"/>
    <path d="M779 273v-19h-1l-1-1v-2h-1 1v-1h-1l1-1h1v-2h-1l1-1v-1h1v-39l-1-13 1-4v-7h-1v1h-3v-1 1h-1l1-1v-1h-1l-2-1h-2l-1-1h-1 1v1h-2l-1-1-1-1h-2l-3 1h-1v-1l-2-1-3-1h-1l-1-1-2-1-3-1-2-1h-2l-1-1-1-1-1-1h-1v-1h-4l-2-1-2-1h-1l-1-1-1-1h-3l-4 2h-1l-2 2-4 1v2h1v1h1-1v1h1v1h-4l-1 1-1 1h-2v1l-1-1v1l-1-1v1h-1v-1h-3l-1 1v2h-1v3h-1v1h-2v1h-1v1h-1v2h-1v2h-1l-1 1h-1v2h-2v1h-1v1l-1 1h-2v1h-1v-1h-6v-2l-1 1v-1h-1v-6 1l-1 1h-1v-1l-1-2v-5h-1v-1h-1v1h-1v4h1v1l-1 1-1-1v-1l-1-1v-3h-1v-1h-1v-1h-1v-2l-1-1v-3h1-1v-5l-1-1h1v-1h1v-1h1v-2l1-2h-1l-1-2-1-1v-1h-1v-3h2v-1h-1l-1-1-1-1h-10l-1-1h-1v-1l-2-1h-1v-1h-2v-1h-1v1-1l-4-1h-7l-1 1h-1l-1 1v1h-2v1l-1 1h-1l-1 1-3 1h-2 1v-1h-2v1h-2l-1 1 1 1h-1v4h-1v1h-1l-1 1h-1v2h-1v1h3l1 1h2v-1l-1-1h2v1h1-1 1v1h5v1h1v-1 2h1v-1h2-1v2h2v1h-1v1h-1 1v3h1v1l1-1h1-1v1h-1v1h1l2 1 1 1v1h2l1-1h2v-1 1h1v1h1v1-1h2v-1l1 1h3v-1h9v-1 1h2v-1h2l1-1h1v1h-1 1v1h-2v1h-1 3v-1 2h-1 1-1v1h2-2v1l-1-1-1 1h1v3l-1-1v-1h-1v3h-1v-1h1v-1h-1v-1h-1v1h-1v-1h-1v2-2l-1 1v2-3h-1v-1h-1v-1h-1v1l-1-1v1h-2v1h-1l-1 1v1l-1 1-1 1-1 1h-1l-1-1-1-1h-2v1-1h-6 2l-1 1h-3v1h1-1v1h1-1v1h6v1h1l1 1h1v1h1v1h1v2l1 1h1v-1h1v3h1v1h1v1h-1v1h-2l1 2v3-1 1l1 1 1 1h-1 1l1 1 1-1h4l2-3h1v-1l-1-1v-1l2-2h1v-2h-2v-1h1v-1 1h2v-5h1v-1l2-1v-1h1v2h1v1h-1v-1l-1 1h-1v1h-1v4l-1 1 1 2v1h1l1 1v-2 1h1v1h1v2h1l1-1v1h1v-1h1v1l-1 1h1v1h2v1h1v-1h-1 1v-1h1v1h1v1h2v-1h1v-1h2l1 1h1v-1 1h1-5v1l1 1h-1v1h1v1l1 1h2l1 1 4 2v1l1-1h5l1 1h6l1 1v1h2v1h4v1h1l1 1 2 1h1l1 1v-1h1v1h1l1-1h1v1h-1l1 1h1v-1h1v1h1l1 1v-1l1-1v2-1l1 1v1h2v1h1v-1l1 1v1h2v1h2-1v1h1v1l1-1h1l-1 1 1 1h1v1-1h1v-1 2h1v1h-1v3h1l1-1h3-1l-1 1h-2l1 1 2 1h2-3v1l1 2h1v3l1 1v1l1 1 2 2 1 1 1 1 2 1-1-1h-2v1l1 1h1l1 1h3l1 2h2-3v-1h-1v-1h-1l-2 1h-3l-1 1 2 1 1 2h3l1 1h4v-1h1v1h-1v1h-4v-1h-5v1h2l1 1v1h1v1l1 1h1v1h1v1l-1 1v3h-1v1h-1v3h-1v2l1 2 1-1v-1l2-1h1l1-1v-2h1-1l1 1v3h4l1-1h1l2-1h5v-3h2l-1 1h-1v2h-1v2l1 1 3 2 1 1 1 1h1l1 1 1 1 2 3 4 4 1 1h1v-8zM616 261h1v1h-2 1v-1zm5-9v1l1-1h-1v-1h1-1v1zm-72-49h-2v1h2v-1zm7-8-1-1-1-1v1h-1l1 1h2zm2-3h-2v1h2v-1zm2-4v1h-1v1h2v-2h1-2 1-1zm34 26v1h-1 1v-1zm40 17v1h1v-1 1l-1-1zm8 2v-2l-1 1v2h1v-1 1-1zm22 7v2l1-1v2-1l1 1 1 1 1 1v-1h1-1v-1h-1v-1h-1v-2h-1v-1l-1 1zm8 6v-1h-2v-1h-2v2h2v2h1v-1h1v-1zm2 3h-1v2h-1v1h1l1-1v-2zm3-5h-1v1h-1v2h1v-1l1-1v-1zm-135 24v-1h-2l-1-1v-1h-1l-1 1h-1l-1 1h-1v1h-1v-1h-1v1h-3v-1h-2v1h-1v2h-1v2h-1v1h1l2-1v-1h7v1h2l1-1 1-1v-1h1l1-1v1h1v-1l1 1v-1zm11-3h-1v-1h-1v3h1v-1h1v-1zm11 10h-3l-1-1h-2v2h3l1 1 1-1h1v-1zm9-17v-1h-2v1h-1 1v1h1v1l1-1v-1zm20 13h-1v-1h-1v-1h-3v2l2 2 1 1v-1l1-1h1v-1zm31-13h-1v1-1h-2v2h-1v1h-1l-1 1v1h-1l-1 1v1l-1 1v2h1-2v-1 3h-1v1h1v2h2v-1h1v1l1-1h-1l1-1v-1h1v-1h1v-1h1v-1h1v-1h1v-3h1-1v-3h1v-2zm-10 17h-1v-1h-1l-1 1h-1v2h-1l-1 1v1h1v-1h1v-1h2l1-1 1-1h1-1zm14-16v-1h-4v1h3v1h1v-1zm-79-64h-3v-2 1h1v-2h-2v-1h-2v-1h-8l-2 1-1 1h-1v-1h-2v1l-1 1 1 2v2h2v2h2v1h1v1h2l3 2h2v-1h3l1-1 2-1h2v-5zm18 2-1 1-2 1h-3v1l-1 1v1h2v-1h2v-1h1l-1 1v1h-1 1v-1h2v-2l1 1v-3zm4 2v-1h-3v2h1l1-1h1zm3-1-1-1v1h-1v-1h-1v1l1 1v1-1h2v-1zm1 2h-1v1h1v-1zm41 6-1-1v1h1v1-1zm1 1v1h1l-1-1zm2 0v-2h-1v1l1 1zm3 6 1 2v-2h-1zm2 5v-1 2-1zm18 18v-1h-1v-2h-1v-1 1h-1v1h1-1 1v4-1l1 1h1v-2zm6-8v-1h-1v2h-1v3l-1 1-1 1v2l-1 3 1-2h1l-1-1 1-1v-1h1v-1h1v-1l1-1v-3zm22 21v-2h-1v-1h-2v-2h-1v-1h-1l-1-1v5h1v1-1h-1l-1 3v3h1v1h1v1-1h2l1-1 1-2v-1h1v-1h1-1zm4-9-1-1v-1h-1 1l1 1v-2 1h1v-1h-1 1-1v-3h1l-1-1v-1h-1v-1h1-1v-1h-3v2-1 1-1l-1 2h-1v1l-1 1v-1h-2v1h2v1h1v1h-1v3h1-1v3h1l1 1h1l1 1h3v-3h1-1l1-1-1-1zm-83-25v-1 1zm-33 13zm0 1zm-4 2zm0 0zm36 35v-1h-1l1 1zm5 2zm1 1h-1 1zm-1-24v-1 1zm-9 7h1v-1l-1 1zm-5 4v-1h-1v1h1zm47-28v1h1v-1h-1zm46 20v-1h-2v1h1v1l1-1zm-9-13v1h1v-1h-1zm-116 39v-1h-1v2l1-1zm8 1h-1l-1 1 1 1 1-1h1l-1-1zm8 2v-1h-2v1h3-1zm13-1h-2l1 1h2v-1h-1zm35-8 1-1v-1l-1 1v-1 1h-1l-1 1h2l-1-1h1v1zm-2-3-1-1v1-1h-1v1h3-1 1-1zm4-2h-3v1h2l1-1zm-6-59v-4l1-1v-1h-1v-2h-3v-3l-1-1v-1h-2l-1-2h-8v-1h-1v-1 1h-1l-1-1-2-1h-2v-1h-1l-1 1h-1v1h-2v1h-2v-1h-1 1v-1h-3v1h-6v-1h-2v1h-5v1h-1v1h1-1v1h-1l-1 1h-1v1h-1l1 1v1l1 1v1l-1 1v1h1v-3h1l1-1v-3h1v-1h1v3h1l2 3h1v1h1l1-1h2v-1l2-1v-1h1v-1l1 1h1v1h-1v1h3l2 1h3l2 1 1-1-1-1v-1h1l5 1h1v1h1v1h1l1 1 3 1 1 1h2v1h2v1h1l1 1h1v1h1zM577 136v-1 1zm6 2 1 1 1 1 1 1 1 1v1h1v-1l-1-1-1-1-2-2h-1zm-48-21h-1v-1h1v1zm33 39h1-2v-1h1v1zm-67 16v1l-1-1h1zm50-9h-1v-1h1v1zm7-61-1-1h2v1h-1zm6-2v-1h1v2h-1v-1zm-47 69v1h-3v1h-6l-1 1h-4l-1 1v-1h-1l-1-1v-2h1v-2h1l1-1h1v1-1h2l1 1h4l1 1h1l1-1h1v2-1h2-1v1h1zm3 2h-1v-1h-2v-1h17v1h-3l-2 1h-9zm8 3v1l1 3v1h1v1h-2v-2l-1-1v-2h-1v-2l1-1h1v2zm35-6-2-1h-5v1h-3l-1-1-1-1 1-1v-2h2v-1l1-1h2v1h1v1h3l1 1v1h2v2l-1 1zm-7-9 1 1h-4v-1h3zm-6-13v-1l1-1v1h1v1h1v-1l1-1h1v2h1v1h1-1l-1 2v1h1v1h4v2h-2v1l-1-1h-1v-1h-2l-1 1v-1h-1v-1l1-1h-1v-1h-1v-1h-1v-2zm0 6h-2v-3h1v1h1v2zm-3-6v-2l1-1h1v1h1-1v1h1v1h-1v2h-2v-2zm3-20v-1h1v1h-1zm1 1v-1h1v1l1 1h-1l-1 1v-2zm1 10 1 2v1l-1-1v-3 1h1-1zm0-4v1h-1v-1h1zm13-32 1-1v-1l1-1 1-1h1v-1h1l1-1h1v2h1v2l-1 1v1l-1 2v1h-1v1h-3v1h-1v-1h1-1v-4h-1zm-13 19v-2l1-1v-1l1-1v-4h1-1v-1h1l1-2v-1h1v-1l1-1 1-1 1-1 1-1h2v1l-1 1h-1v2h-1v1h-1v1l1 1h1l1 1v7h-1v1l-1 1v1h-1l-1 1-2 1-1 1 1 1 1 1h1v1h1v-1h1v-1l1-1v-1l1-1v-1h3v-2h-2 1v-1l1-1 1-1h1v-1h1l1-1h5l-1 1v1h1v3l-1 1 1 2h-2l-1 1v1h-3l-1 1v1h-2v1l1 1 1 1h2v1h3v1h1v3l1 1h2v1h1-1l-3-1h-2v-1h-1v-1h-6v-1h-4v9l1 1v2l1 1v2l1 1v1h1l1 3 1 1 1 1h1l1 1h-3v-2h-1l-2-1h-1v-1l-1-2-1-1v-2h-1l-1-1h-1l-1-1v-4l1-1-1-1v-1l1-2v-1h-2v-1l-1-1v-4l1-1v-2h-2v-1h1l-1-1v-1h-1v1-2zM469 196v1h-1v-1h1zm-2 2h-1v1l1-1zm12 1h1v1-1h1v-1l-1 1h-1zm11 31v1h1v1h1l-1-1-1-1zm-3-3v1l1 1h1v-2h-2zm8 11v1l1 1v-2h-1v-1h-1v1h1zm-16-33h-1v1h-1v1l1 1v1h1l1 1 1-1 1-1v-2h-3v-1zm-17 21h1-1v-1h-1v-1h-1v-1 1h-1v2h-1v2l1 1h1v1h2v-4zm8 4h1v-1 1-1h1v-3h-1 1l-1-1h1v-2l2-1 1-1h-1v-5h-2l-1 1-1 1h-2v1h-1v2h1v3h-1v3l-1 1v1h2v-1h1-1v1h2v-2 1h1l-1 1v1zm6 0 2-1h1v1-1h2v-1h1v-1h-1v-1h-1v-1h-2v1h-1v-1l1-1v-4l1-1v-1h1v1-1h1v2h1v-3h-1v-1h1-1v-2l-1-1h-1l1-1h-2l-1 1v1h-1v6h-1v2l-1 1h1v1h-1v2h1l-1 1h-1v1l-1 1v1l-1 1 1 3h1v-1h1v1-1l1 1 1-1v-1l1-1h-1v-1zm1-21-1-1v-1l-1-1-1 1h1v1h-2v-2h-1l-1-1h1l1-1h-2l-1-1-1-1v-1h-2l-1-1h-1v-2h1v-3h1v1h1-1 1v-1h-2v-1l1-1-1-1-1-1h-3l-4-2h-6l-1-1-2-1h-2l-1 1v2h-1 1v3h-1l-1 1v1h-1v2h-1 1v1l3 3 1 1 1 1h1v1h1v1h1l1 1h3v3l-1 1v2l-1 1v4l1 1 1 1h1v1h1v-1l1 1v-1l1 1h4v-1h1-1l-1-1v-2h1v-2h4v-1h4v-1l1 1h1v1-1l1 1v-2l-1-1h1v1l1 1h1v-1h1v-1h-1v-1h1v-1z"/>
    <path d="M445 261h1-5v-1h1l1 1h2zm-6-3h2v-1h-1l-1-1h-1v1h1v1zm-2-17v-5h-1v-1 1l-1 1v2l1 2v1h-1v1l1 1v3-2h1v-4zm21 21h-1v1h1l1-1-1-1v1zm0-78v-1h-1l-2-1v-1l-1-1-1-1h-1l-1-1-10-2-3-2v-1h-1l-2-3h-1v1h-1l-2-1h-2l-2 1h-1v1l-1 1v1h-1l-2 1v3h1v2h1v4l-1 1h-3v3l1 2 1 1h-1v1h-3v1l1 1v3h1v2h-1v3h1v1l1 2v1-1h1v2h-1v1h1v1l-1 1h1v2l-1 1v3l-1 1v1h-1l1 3-1 1v2h-1v2l-1 1v2l1 1v1h1l-1 1h2v1h2v1h3v-1h1v-1h6l1-1h1v1l1 1h1l-1-1v-1l-1-2v-2l-1-1-1-1h1v-5h1l1-1v-2h1l-1-1v-3h-1v-2h1l-1-1v-7h1v-10h-1v-1h-1l-1-1h1l-1-1v-1h-1v-1h1l1-1 4-2 1-1 1-1h6v1h1v1h-1v1h-1 1v1-1 1h1v1l1-1h2l2 1 1 1h3v-1l3-2v-2z"/>
    <path d="m426 172-1 1v1h-1l-2 1v3h1v2h1v4l-1 1h-3v3l1 2 1 1h-1v1h-3v1h1v3l1 1h-2l-1-1h-1v1h-3l-1 1h-1l-1 1v-1l-1-1v-4l-1-1v-1h-1v-1h2v-4h-1l-1 1v-2h1v-2h3v-1h1v-1h1l1-1v-1l-1-1v-2h1v-2l1-1v-1h2v-3l-1-2v-1h1v-1l-1-1v-2h1v-1l-1-1 1-1 1-1h1v-3h1v-2h1v6h-1v1l-1 1h1l2 1 1 1v3l1 1h1v4l1 1z"/>
    <path d="M488 166v2h-1v-1 1h-1v-4h1l1 1h-1l1 1zm-54-44h1v-1h-1v1zm5-1h-1 1zm52 50h-1v1l1-1zm-2 0v1-1zm3 2h1v1-2l-1 1zm-33-26h1v-1h-4v1l-1 1h1l1-1h2zm1-1h2v-2h-2v1-1h-1v2h1zm-5-5h-1v1h1l1-1h-1zm11 2h1v1l1 1v-1h-1l1-1h-2v-1h-1v1h1zm-2 0h1v1-1h-1l1-1h-1v1zm16 28v-1h1v-1l-1-1v1h-1v2h1zm1-11h1v-1l-1-1v1h-1v-1h-1l-1 1h-2l-1 1v3l1 2h1l1-1 1-1v-1l1-1h1v3l-1 1v1h2v-3h2v1h2l1-1v-3h-2v-1h-1v2h-1v1h-1v-1h-1v-1zm11 12v-1l-1-1v2h2-1zm-28-27-1-1v-1 1h-1v1l1 1v-1 1l1-1zm20 22-1 1v1l1-1v-1zm2-15-1-1h1-1v-1l-1-1h-1l-1-1h-3v1h-4l-1 1h2v1h1v1h-5v-1 1h-1l-1-1h-1l-1 1h-4v2h-3v1h-4v-1h-1v-2h-1l-1 1h-1l-1 1v1l-1 1-1 1-1 1-1 1v2h-1v1h-1v1h-1v-1h-3v-1h-1l-1 1h-1v-1l-1-1v-1h-1 1v-2l-1-1-1-1h-1v-1h-1l-1 1-1-1-3-4v-4l-1-1v-5l1-1 1-1v-2l1-1 1-1v-1l1-1h1v-1h1l1-1h4v1h2v1h2v-1h1v1h2v-1h3v-2h-2v-1l-1-1h2v-1l1-1h3l1-1h3l2-1h3l2-1h1-1l-1-1h-1v1h-1v-1h-7l-1-1-1-1v-1h1v-1h-1v1h-4l-1-1h-1l-2-1v1h-1v-1 1h-1v2h-1v3h-1v1-1h-1v1l-1 1v2h-1v-1h-1v1l-1-1h-1v-1 1-3h-1l-1 1v2l-1 1h-2v1h-1v1l1 1v1h-1l-1 1h-1v2h-1l1 1h-1l-1 1v1l2 1v3h-2v-1h-1v-1l-1 1v1l1 1h2v1h-1v7l1 1v1h1l-1 1h1v1l-1 1v-1l-1-1v-2h-1l-1 1h1l-1 1h-1v7h-1v1l-1 1h1v1h2v1h1v3l1 1 1 1v4h1v-1h1l2-1h2l2 1h1v-1h1l2 3h1v1l3 2 9 2h1l1 1h1l1 1 1 1v1l2 1h1v3l-3 2v1h3l4 2h3l1 1 1 1h2v-2h-1l-1-1h-1v-2h1l-1-1h-1v-1h-1v-1h-2v-3h-1v-1l-1-1-1-1v-1l-1-1v-1h-1l-1-1h-2v-2h-1l-1-1v-1h-1v1h-1v-3h2v1h1l1 1h2l1-1 1-1v-2h3l1-1h3v-1l2-1h1v-1l1-1h1v-1l1-1 1-1v-1h1v-1h1v-1l1-2h4l1-1h1v2h1v1h1v1l1-1h1v-3h1l-1-1h1z"/>
    <path d="m487 131-1 1v2h-4v-1l-1-1-1-1-1-1v1h-6v-1h-1v1h-11l-1 1h-2l-1-1v-1h-4v1h-3v-2h-2v-1l-1-1h2v-1l1-1h4l1-1h2l2-1h3l2-1h6v1h3v1h1v1h3v-2h3v1h1v1h1v2h1l1 1 1 1h1v2z"/>
    <path d="M538 46zm9 13v1-1zm-29 45v-1h-1v1h1v-1 1zm-4 5v-1 2-1zm1 6h-1l1 1 1-1v-1l1-1-1 2h-1zm4-16h-1v1h1v-1zm-1-5v1h1v-1h-1v-1h1v-1h-1v1h-1 1v1zm1-16 1 1v2l1 1h2v-1h-1v-2h-1v-1l-1-1h-1v1zm23-3v-1h-1v2h2v-1h-1zm-3-3v1h1v2-1h1v-1h-1l-1-2v1zm1 0h2v-3h1l1-2-1-1v-2h-1v-1h-1v1l-1 1v2h1v1h1l-1 2-1 1v1zm-24 42-1-1-1-1 1-1h-3v-1h-1v1h-1l-1 1v2l-1 1h-1l-1 1-1-1v1h-1v2h1v1h-4v1l-1 1v1h-1l-1 1h-1l-2 1h-1v1h-5v-1h-4v-1h-1v1h-1v-1h-2v1l-1-1v1h1v1h1v2h1l1 1 1 1h1v5h3v1-1h4v-1h3l1-1v1h1l2-1h1l1-1h1v-1l1-1h1l-1-1h1v-2h1v-1h1v-1h1v-1h2v-1l1-1 1-2 1-3 1-1h1l1-1z"/>
    <path d="M465 122h-1l-1-1h-1v1h-1v-1h-7l-1-1-1-1v-1h1v-1h-1v1h-4l-1-1h-1l-2-1v1h-1v-1 1h-1v2l-1 1v2h-1v1-1h-1v1l-1 1v2h-1v-1h-1v1-1h-2v-1 1-2l-1-1-1 1v2l-1 1h-1l-1 1h-1v1l1 1v1l-1 1h-2v3l-1 1h-1l1 1 1 1v3h-2v-1h-1v-1 1h-1v1l1 1h2v1h-1v6l1 1v2h1v2l-1 1v-2l-1-1v-1h-1l-1 1h1l-1 1h-1v1h-1v2h-1v3h-1l-1 1-1 1 1 1v1h-1v2l1 1v1h-1v1l1 2v3h-2v1l-1 1v2h-1v2l1 1v1l-1 1h-1v1h-1v1h-3v2h-1v2l1-1h1v4h-2v1h1v1l1 1v4l1 1v1l1-1h1l1-1h3v-1h2v1h2v2h-1v3h1v1l1 2v1-1h1v2h-1v1h1v1l-1 1h1v2l-1 1v2l-1 2v4l-1 1v2h-1v2l-1 1v2l1 1v1h1l-1 1h2v1h2v1h3v-1h1v-1h6l1-1h1v1l1 1h1l-1-1v-1l-1-2v-2l-1-1-1-1h1v-5h1l1-1v-2h1l-1-1v-3h-1v-10l1-1v-9h-1v-1h-1l-1-1h1l-1-1v-1h-1v-1h1l1-1 4-2 1-1h1l1-1h5v1l1 1h-1v1h-1 1v1-1 1h1v3h-1 1v3h-1l-1 1v1h-1v2h-1 1v1l3 3 1 1 1 1h1v1h1v1h1l1 1h3v3l-1 1v2l-1 1v4l1 1 1 1h1v1h1v-1l1 1v-1l1 1h4v-1h1-1l-1-1v-2l1-1v-1h3l1-1h4v-1l1 1h1v1-1l1 1v-2l-1-1h1v1l1 1h1v-1h1v-1h-1v-1h1v-1l-1-1v-1l-1-1-1 1h1v1h-2v-2h-1l-1-1h1l1-1h-3l-1-2v-1h-2l-1-1h-1v-2h1v-3h1v1h1-1 1v-1h-2v-1l1-1h2v-2h-1l-1-1h-1v-2h1l-1-1h-1v-1h-1v-1h-2v-3h-1v-1l-1-1-1-1v-1l-1-1v-1h-1l-1-1h-2v-2h-1l-1-1v-1h-1v1h-1v-3h2v1h1l1 1h3v-1l1-1v-1l1-1h2l1-1h3v-1l2-1h1v-1l1-1h1v-1l1-1 1-1v-1h1v-1h1v-1l1-2h4l1-1h1v2h1v1h1v1l1-1h1v-3h1l-1-1h1l-1-1h1-1v-1l-1-1h-1l-1-1h-3v1h-4l-1 1h2v1h1v1h-5v-1 1h-1l-1-1h-1l-1 1h-4v2h-3v1h-4v-1h-1v-2h-1v1h-1 1-2l-1 1v1l-1 1-1 1-1 1-1 1v2l-1 1h-1v1h-1v-1h-3v-1h-1l-1 1h-1v-1l-1-1v-1h-1 1v-2l-1-1-1-1h-1v-1h-1l-1 1-1-1-3-4v-4l-1-1v-5l1-1 1-1v-2l1-1 1-1 1-1v-1h1v-1h1l1-1h4v1h2v1h2l1-1v1h2v-1h6v-1h4v1l1 1h2l1-1h11v-1h1v1h6v-1l1 1 1 1 1 1v1h7v1-1h4v-1h3l1-1v1h1l2-1h1l1-1h1v-1l1-1h1l-1-1h1v-1h1v-2h1v-1h1v-1h2v-1l1-1 1-2 1-3 1-1h1l1-1-1-1-1-1 1-1h-3v-1h-1v1h-1l-1 1v2l-1 1h-1l-1 1-1-1v1h-1v2h1v1h-4v1l-1 1v1h-1l-1 1h-1l-2 1h-1v1h-5v-1h-4v-1h-1v1h-1v-1h-2v1l-1-1h-3v2h-3v-1h-1v-1h-3v-1h-5zM455 316v1h-1v-1h1zm26-36h-3l-1 1-1 1v1h1v-1l1-1h3v-1zm-39 26-1-1-1-1h-1l-1-2-1-1h-1v-1h-2v1h-1v-1h-1v-2l-1-1h-2l-1-2h-1v-1l-2 2h-2l-1-1h-2v1l-1-1h-1v1l-2-1-1 1h-3v1h-1v1h-1v1h1v1h1v1h2v1h4v1-1h4v1h1v1h1l1 1h2v1h1v1l1 1v1h1l1 1h4v1h1v-1h4v-1l1-1h1v-2zm-21-24v-1h-2v-1h-1v5h1v-2l1-1v1h1v-1zm3 1h1-2v1l-1-1v2h-1l1 1v-1 1h1v-2h1v-1zm58-4h2v-2h-4l-1 1-1 1h4zm6 1h1v-1 1h1v-1h1v-1l1-1h2v-1h-4v1h-1v-1 2h-1v1h-1v-1l1-1h-4v1h2v1h-2l-1 1-1 1v1h3v1-1h1v-1l1 1h1v-2zm12-4h-1l-1 1-1 1v1h-1v-1h-1l-1 1v1h-1 2l1 1v1h1l1-1v-2h1l1-1v-2zm4 1h-1l-1 1-1 1-1 1h6v-1l1 1 1-1h6v-3l-1-1h-7v1h-1v-1h-3v1h-1v1h2v-1h1v1zm-43 36h-2v1l-3 1v1h4v-1h1l1-1-1-1zm24 3h-1v-1h1l-1-1h1v-1h-1v1l-1 1h-1v1h-1v1h-1l-1 1h-2l-1 1h-1v2h3-1 1l2-1h2v-2h1l1-1h1v-1zm2-7h-1v-1h-1v1l-1 1-1 1 1 1v-1h1v1-2h1v-1h1zm27-19-1-1v1h-1l-1 1h-1v-2h-1l-1 1h-2v1l-1 1h-3v3h-1v1h-1v2h-1v-2h-3l-1-1h-1v1h-1v2h-2v1h-1v1h-1v5h-1v2h1v-1h1v1h1v1h-2v1h-2v1h-1v2h6l2-1h1l1-1 1-1h5l1-1 1-1v-1h1l1-1 1-1h1l1-2v-1l2-1v-1l1-1h1l-1-2v-1l-1-1v-1l1-1v1h1v-1h1v1-3zm-57-13-1 1 1 1v-2zm11 3h-1v1h1v-1zm7 1v-1h2l-1-1h1v-1h2v-1h-1v-2h-1v-1h-2v1h-1v2l1-1h2l-1 1-1 1h-1v1h-3v1l-1 1h-1 1v1l-1 1h-4l-1-1h-1v-1h-1v-1h-2v1h-5v-1 2h-1l-1 1v-1h-2l-1-1h-1v-1h-3v-1h-1v-1h-6v-1h-4v-1 1h-2l-2 1-1 1v-1 1h-2v1h-2v1l-1 1v4h1v1h1l1-1h2v-1h1v1h1l1 1 1-1h4l1 1h2v-1h1v1l1 1h7l1-1v-1h3l1 1v1h1v-1h1l1 1v-1h1l3-1 1-1h7v-1h2v-1h3l1-1-1-1zM386 278v-2l1-1h2v1l-1 1-1 2h-1v-1zm-13 1v-1l-1-1h-3l-1-1h-1l-1 1-2 1-1 1h-1v2l1 1v2h-1v1h1-2v1h-1v-1h-1v1l1 1h1v1h1v-1h1-1v1h1v-1h1v1h4v1-2h1v1h2v-1h-1v-1l1-1v-2h1v-1h1v-3h1-1zm40-4h-1v2h1v-1h1l-1-1zm-3 11h-3l-1-1h2v-1l1 1v-1h1v1h4v-2h1-1 1l-1-1v1h-1v1l-1-1v-3l-1-1v-1h-1v-1h-1l-1 1h-1v3h-1v1h-1l1-1v-3l-1-1h-3l-1 1-1 1-1-1-1-1h-1v-2l-1-1h-3l-2 1h-1v2h1v1l1 1h1l1 1 1 1v-1h1v1h1l1 1h1v2h-1l-1-1-1 1h-1l-1 1h-1v-1l-1 1h-1v-3h-2l-1-1v-1 1h-1v-2 1h-2v-1 2l-1-1h-1v-1h-3l-1 1h-1v1h-3v1l-1 2v1l1 1-1 1v3h4v1h3v-1h5l1-1 2-1h4l2-1h2l2-1v-1h1v-1h1v-2 1h1v2h-1v2h1l4-1h2v1h2v-1zM355 278h1v2h-1v1h-2v1l-2 1h-1l-1 1v1h-1v1-1 2h-2v-1h1v-1h1l-1-1-1-1v-1h-1l-1-1-1-1-2-1h-4v-1l-1-2-1-1v-1h1l1 1 1-1v1h1l3 1h3v-1l2-1h3l3 2h1l1 1v1zm0 6h-2l-1 1h1l1 1h1v-2zM385 83h2v1h-2v-1zm7-8-1-1h-1l1 1h1zm-3 7v-1h-2v3h1l1 1v-3zm-2-1h-1v-1h-1l-1-1h-3v1h1l1 1h4zm5-2h-1v1h1v1h1v-1l-1-1zm-3-7h1v-2h-2v2h1zm2-2 1 1v1h1v-3h-3v1h1zm4 28-2 1h-1l-1 1h-1l-1-1-1-2h-2l-2-1h-5l-1 1-2 1-1 1h-1l-1-2-1 1-1 1v-1h-1v2l-1 1h-1l-2 1 1 1-1 1h-1v1l-1 2v2l-1 2-1 1v1l-3 2v1l-2 1-1 1h-1l-3 1-1 2-1 1h-3v-1l-3-1v-1h-2v1l-2-2v-1l-1-1h-1l-1-2v-1h1v-1l1-1v-3h1l1-1h1v-2h-1v-1l-1-1v-1l1-1h2v-2l1 1v-1h1l1-1h1v-1h1v-1h-1v-1h-1v1l-1-1h1v-1h-1v-1h1v-3h1l1-1v-1h1v1h1l1-1h1v-1l1-1h-1v-1l1-2v-1h2l-1-1v-7h-1v-1h1l1-1v-3h1l1-1 1-1v-1h2l1 1 1 1v-1h1v-1h4l1 1h1v-1h1v-1l1 2 1-1v1l1-1h1l1 1 1-1h1l1 1h3v-1h1v1h1l1 1 1 1h2v1h-1l-2-1v1h1v1h2l1 2h1v1h-1v-1h-1l1 1h2v1h1v1h-1 1l1 1h-1v1h-4v-1h-1v-1 2h1l-1 1-1-1h-6l-1 1h1v-1h2v2h1v1h1v1l1-1h1v2h-1v2h-1v-1h-1v1h1l1 1h2-1v1h3v1l-1 1h2v1h-2 2l1 1h-1l-1 1h2l1 1v2h1v1h1l1 2h1zM358 159v2l-1 1v1h-1v-1h-2l-1 1h-2v1l-1 4v5l-2 2-1 1h-2l-2 1h-1v1h1v2l-1 1-1 1v2l-1 1h-1v1h-2v1h-1v2l-3 7h-1v-1h1v-1l1-1h-1v1l-1 1h-2l-1-1 1-1v-1 1h-1v1l-1 1-1 1h-1l-1 1h-3l-1-2h1v-2l-1-1h-2v1h-2v-1h-1l1 1v1l-1-1-1-1v-1h-1v-1h-1l-1-2v1h-1v1h-1v1l1 1-6 4h-1v1h-1v-1l-2-1-1-1h-1l-1 1h-2l-2 3h-1v1h-1v-1h-1v-1h1v-2l-1-3v-3l-1-1v-3h-1v1h1v1h-1v1h-1l-1 1h-1v-1h-3l-4 2-2 1-1-1h-2l-1-1h1v-1h2v-1h2v-2h2v-6l-2-4v-1l-1-2 1-2v-3h-1l-1-1 1-1 1-1h1v1h1v-1h1v-1h1v-1h1v-1h1v-1h1l1-1h1l1-1h-1v-1h1v-1l2-1 1-1h1l2-1 1-1h1v-1h4v1h1l1-1h2l3-1v-1h2l1-1h2l1-1h1v1h1l1-1v-2h-1l1-1v-1h1l1-1 1-1v-3l-1-1-1-1v-1h-1 1l1-1 1 1h1v-1h2v-3h1v-1h1v-1h4v-1h3l1 1h7v-1h1l1-1h4v2h1v1h-1v1l-1 2v4h1v1l-1 1v3l1-1h1v-1l2-1h1v-1 1h1v2l-1 1v4l1 1 1 2v3l1 1v1l1 1h2v1h1v1h2z"/>
    <path d="m359 219-1 1-1-1h1l1-1v1zm7-17h1v-1h-1v-5l-1-1 1-1v-1h-1l-1 1h-1v2l-1 1v2l-1 1v1h1v3l1 1h-1v1h1v1-1h1v-1h2v-3zm2-2v-5 1h-1v3l1 1zm-11 20zm0-2zm14-40h-3l-4-1h-4v1h-1l-1-1v-4h-1v-4l-1-2v-1h-1v-2h-1l1-1h1v-1h-2l-1 1h-2v1l-1 4v5l-2 2-1 1h-2l-2 1h-1v1h1v2l-1 1-1 1v2l-1 1h-1v1h-2v1h-1v2l-3 7 1 1h2v-2h1l-1 2v1h1l1 2v9h2l2-2 3-1 5-2 4-2 3-1 1-1 1-1h2v-2l1-1 1-2v-1h1-1v1h1v-2h1l1-1h-1l-1-1v-1h-1v-3h1v2h1v1h1l1-1v-5l1-1h-1l-1 1v-1l1-1h-1 3v1h1v-1l1-3z"/>
    <path d="M404 101v-1l1 1h-1 1v1h1-2v-1zm7 21v2h-2v1h-9l-2-1h-2v-1h-1v-2h-1l-1-1v2l1 1v1h1v2h-1v-1h-3v1l-1 1v1l-1 1-1 2v1h-1v1l-1 1 1 1h-1v2h1-1v2h1v1h-1v2h-1v2h1v3h-1v1h1l2-2h1-1v1h-1l1 1v1h-1v2h-1 2v1h-1v1l-1-1v1h-1v1l-1-1v1h-1v-1h-1v2h-1l-2 3h-1v2h-3v-1h-1v-3h-1v2h1v1h-1l1 1v2h-1l-2 1-1 1v1h1l-1 1-2 1h-1l-1 1-1 1h2v-1h1v1h1-1v1h1v3h-1v1h-1l-1 1h2v1l1-1h1v1h1v-1 3h-3l-4-1h-4v1h-1l-1-1v-4h-1v-4l-1-2v-1h-1v-2h-1l1-1h2v-1l1-1v-4h-2v-1h-1v-1h-2l-1-1v-1l-1-1v-3l-1-2-1-1v-4l1-1v-2h-1v-1h-1v1l-2 1v1h-1l-1 1v-3l1-1v-1h-1v-4l1-2v-1h1v-1h-1v-2h-4l-1 1h-1v1h-7l-1-1h-3v1h-4v1-1l1-1h1v-2h1v-2h-2v-1l1-1h1v-1h1l2-1v-1h1v-4l3-1h1l1 1h1v-1l1 2h1l1 1v1l2 2v-1h2l1 1 2 1v1h3l1-1 1-2 3-1h1l1-1 2-1v-1l3-2v-1l1-1 1-2v-2l1-2v-1h2v-1l-1-1 2-1h1l1-1v-2h1v1l1-1 1-1 1 2h1l1-1 2-1 1-1h6l1 1h2l1 2 1 1h1l1-1h1l2-1v1h1v3h-2v1l-1 1h-1 1v1h-3 2v3h1v1h2v1h1l1 1 1 1 1 1h1l1 1h1l-1 1h1v1h3l1 2h1l1 1h-1l1 1 1 1h2v1zm-45 24h-3v-1 2h2v-1h1zm4-3-1-1h-1v2h-1v-1h-1v1l1 1 1-1v-1h2z"/>
    <path d="M248 159v-1l1 1h-1zm-2 2h1v-1h-1v1zm-6 7v-1h-1v1h1zm17-12-1-1v1h-1l-1-1h-2v3l-1 2h1v1h1v-1h1l1-1h1l1-1v-2zm-16 10v1h1l1-1h1v-1h-3v1zm37 21v-2h2v-6l-2-4v-1l-1-2 1-2v-3h-1l-1-1 1-1 1-1h1v1h1v-1h1v-1h1v-1h1v-1h1v-1h1l1-1h1l1-1h-1v-1h1v-1l2-1 1-1h1l2-1 1-1h1v-1h4v1l1-1h3l3-1v-1h1l1-1h3l1-1h1v1h1l1-1v-2h-1l1-1 1-1 1-1 1-1v-3l-1-1-1-1v-1h-1 1l1-1h1v1l1-1v1-1h2v-3h1v-1h1v-1l1-1h1v-1l1-1v-2h-2l1-1v-1h1v-1h1l2-2h1v-4h-1l-1-1-3 1-1 1-3 2h-1l-1-1h-2l-2-1h-2l-1-1h-3 1v-1h1l-1-1h-1l-1-1h-1v1h-7l-1 1h-1l-2 1v2l-1 3h-3l-2 2h-4l-1 1v-1h-3l-2-1-4 1h-2l-1 1v1h-3l-1 1h-1v-1h-1l-1-1v-1h-2l-1-2v-1h-2l-1-1-1-1v-1l-1-1v1l-1-1v-1l-1 1v-1l-2-1v-4h-2v-2l1-1 1-1v-1l-1 1v1h-4v2l-1 1h1l-1 1v1h-1l-2 2h-1v4l-1 1v1-1h3v-2h1v-1l1 1h-1v1l-1 1h-1l-1 1h-2v1l1 2v2h-2v3l1 1v6h2l1 1 1 2 1 1 1 1h-2v-1 4l1 1h-1v-1h-1l-1 1v1-1h1v5h2v1h3-1v1h2v1h1-4v-1h-1v1l1 2 1 1h1v-1h2l1 1v1h2v-1h1-1v1h1v1h1v1h2v3h1v1h1v5l-1 1v1h-1v1h-1 1-1v1h1l1 1h1v1h1v7h1v2h2l-1 1h-1v2h1v3h-1l1 1v1h1l2-1 1-1h2v1l1 1v1h-1l1 1 1-1 1-2h2v-1h2z"/>
    <path d="m274 188-1 2h-2 1v-1l-1-1v-1h-2l-1 1-2 1h-1v-1l-1-1h1v-3h-1v-2h1l1-1h-2v-2h-1v-2l-1-1 1-1v-2l-1-1v-1h-1v-1h-1l-1-1h1-1l1-1h1v-2h1v-5l-1-1h-1v-3h-2v-1h-1v-1h-1v-1h1v-1l-1 1v1h-2v-1l-1-1h-2v1h-1l-1-1-1-2v-1h1v1h4-1v-1h-2v-1h1-3v-1h-2v-5h-1v-1h2l1 1-1-1v-4 1h2v-1h-1l-1-1-1-2-1-1h-2v-6l-1-1v-3h2v-2l-1-2v-1h2l1-1h1l1-1v-1h1v-1h-1v1h-1v2h-3v1-1l1-1v-4h1l2-2h1v-1l1-1v-1 1h-1l1-1v-2h4v-1l1-1v1l-1 1-1 1v2h2v4l2 1v1l1-1v1l1 1v-1l1 1v1l1 1 1 1h2v1l1 2h2v1l1 1h1v1h1l1-1h3v-1l1-1h2l4-1 3 1h2v1l1-1h4l2-2h3l1-3v-2l2-1h2v-1h7l1-1v1h2v2h-1 3l1 1h2l2 1h2l1 1h1l3-1 1-2 3-1 1 1h1l3-1h1l1 1h1v-2h1v-1l1-1v-3h2v-1h1v-2h-1v-1l-1-1 1-1v-1h2v-2l1 1v-1h1l1-1h1v-1h1v-1h-1v-1h-1v1l-1-1h1v-1h-1v-1h1v-3h1l1-1v-1h1v1h1l1-1h1v-1h1v-5h2l-1-1v-7h-1l1-1 1-1v-3h1l1-1h1v-2h3v1l1 1v-1h1v-1h4l1 1h2-1v-1h1v-1l1 1v1l1-1h2l1 1 1-1h1l1 1 3-1h1v1h1l1 1 1 1h2v1h-1l-2-1v1h1v1h2l1 2h1v1h-1v-1h-1l1 1h2v1h1v1h-1 1l1 1h-1v1h-4v-1h-1v-1 1l1 1-1 1-1-1h-6l-1 1h1v-1h2v2h1v1h1v1l1-1h1v2h-1v2h-1v-1h-1v1h1l1 1h2-1v1h3v1l-1 1h2v1h-2 2l1 1h-1l-1 1h2l1 1v2h1v1h1l1 2h1v1h1v3h-2v1l-1 1h-1 1v1h-3 2v3h1v1h2v1l2 1 1 1 1 1h1l1 1h1l-1 1h1v1h3l1 2h1l1 1h-1v1h1l1 1h2v3h-1l-1 1h-1v1h-1v-1h-3v1-1h-3v1-1h-1l-2-1h-2v-1h-1v-2h-1l-1-1v2h1v2h1v2h-1v-1h-3v1l-1 1v1l-1 1v1l-1 1v1l-1 1v1h-1l1 1h-1v2h1-1v2h1v1h-1v2l-1 1v1h1v3l-1 1h1l2-2h1l-1 1h-1v1h1v1h-1v2h-1 2v1h-1v1h-2v1l-1-1v1h-1v-1h-1v2h-1v1l-2 2h-1v2h-3v-1h-1v-3h-1v2h1v1h-1l1 1v2h-1l-2 1-1 1v1h1l-1 1-2 1h-1l-1 1-1 1h2v-1h1v1h1-1v1h1v3h-1v1h-1l-1 1h2v1l1-1h1v1h1v-1 3l-1 3v1h-1v-1h-3l1 1h-1v1l1-1h1l-1 1v5l-1 1h-1v-1h-1v-2h-1v3h1v1l1 1h1l-1 1h-1v2h-1v-1h1-1v1l-1 2-1 1v2h-2l-1 1-1 1-3 1-4 2-5 2-3 1-2 2h-2v-9l-1-2h-1l1-1v-2h-1v2h-2l-1-1h-1v-1h1v-1l1-1h-1v1l-1 1h-3v-1l1-1v-1 1h-1v1l-1 1-1 1h-1l-1 1h-3l-1-2h1v-2l-1-1h-2v1h-2v-1h-1l1 1v1l-1-1-1-1v-1h-1v-1h-1l-1-2v1h-1v1h-1v1l1 1-6 4h-2l-2-1-1-1h-1l-1 1h-2l-2 3h-1v1h-1v-1h-1v-1h1v-2l-1-3v-3l-1-1v-3h-1v1h1v1h-1v1h-1l-1 1h-1v-1h-4l-3 2-2 1-1-1h-3v-1h1v-1h1l2-1h-1v1h-2zm92-42h-1v1h-2v-2 1h3zm4-3h-2v1l-1 1-1-1v-1h1v1h1v-2h1l1 1zM335 258v1h-1l-1-1v-1h1l1 1m0-25h1v1h-1v-1m0-2h1v1-1 1h-1v-1m4-6v1h-1v-1h1m20 33v1h-2v-1h1l1 1v-1zm-41 22h-2v1h2v-1zm-12-45h-1l-1 1v1h1v-1 1h1l1-1v-1h-1zm42 19v1h1v1h1-1v-1h1v1h1v-1h-1l1-1v1h1v-1 1h2v-1l-1-1h-5l1 1h-1zm-41 2h-1v2-1 2h2l5 1v-2h1v1h-1 1v1l1-1v1h5v-1h1v-1h5v-1h-1 2v-1h3v-1h-1l-1-1h-20v2h-1zm29 3h2v-1h-2v1zm2 25-1-1h-2v-3h-1v1-6l1-2v-4h-1v-1h-4v-1l-1-1h-1l-1 1h-2v1h-8v1h-1l-1-1h-2l-1-1h-2l-2-1-1-1v-2h1v-3l-1-1-1 1h-1l-1-1h2v-1h-1v-1h-1 1l-1-1v-2l-1 1v-1h-8l-1-1v-1h-1v1h-2l-1-1h-1v-1 1l-1 1v5l-1 1v1h-2v1h-2v-1h-2v8h1l1 1v1l-1 1v1h-2l-1 1-1 1h-1v2l1 1h1v-1 1h6v1h3l1 1v-1h2v-1h1l1 1 1-1v1h6l1 1h3l1 1h2v-1h3l1-1h1l2-1h1l1 1h1l1 1h1l1 1h2v1h3v1h2v1h7v2h2l1 1h1v-2zM275 275v1h-3v-1h-3l-1-1h-1v-1h-1l-4-2v-1l1-1v-2h2v1l1-1 2-1v-1l1 3v1h1l1 1h3v5h1z"/>
    <path d="M269 236v1h-1v-1h1zm-24 33h-1v-1h-2l-1-1v1h2l1 1h1zm44-18-1-1h-2l-1 1h-5v-1l-1-2v-1h-1v-1h-4l-1 1h-1v4l-2 2v1l-1 1h-2v1-1h-2l-1-1v-1 1h-1l-2 1h-2l-3-1-3-1h-1l-1 1h-4l-1-1h-1v-1h-1v1h-2l-1 1v3h-1v1h-3v3h1v1h1v2l1 1v1l1 1 1-1v1h1v1h3l1-1 3 1h1v1h4l2 1h3l1 1h1v-1l1-1v-2h2v1l1-1 2-1v-1l1 3v1l1 1h4v5h1v1h2v-2h1l1-1 1-1h2v-1l1-1v-1l-1-1h-1v-8h2v1h2v-1h2v-1l1-1v-5l1-1v-1z"/>
    <path d="m242 253-1 1v3h-1v1h-3v3h1v1h1v1l1 1v2l1 1h-2v1h-1v-1h-1l-1 1v1h-6l-3-1h-2l-1-1h-2v-1h-1v-1h-2v-1h-5l-1-1h-10l-1-1h-1v-1l-1-1 1-1h1v-1h1v-2l-1-1h-1v1-2l1-1v-1h1-1l-1-1v-6h1v1-1h2v1h2l1-1v-1 1h2v1l1-1v-2h1v-5h2v1h1l1-1h1l1 1 1 1v1l1 1h1l1 1h3l1-1v1l2 1 1 1h3v-1l1-1 1 1 2 3h1l1 3 1 2h1v1h2v-1l1 1z"/>
    <path d="M211 241v2h-1v2l-1 1v-1h-2v-1h-1v-1l-1-2h1v-1 1h2z"/>
    <path d="M181 250v1l-1-1h1-1v-1 1h-1v-1h1v-1h2v2h-1zm26-5v-1h-1v-1l-1-2h1v-1l-1-1h-2v1h-1l-1-1h-1l-1-1h-1v1h-2v-1l-1-1h-1v2h-1l-1 1v1l-1 1v5h-1l-1 1v-1h-1v3h-1l-1 1v1l-1 1v-1h-1v-2h-1v1l-1 1h-1v1h3v1l1-1v1h2l2-1h1v1h1v-1h4l2 1 1 1h1v1h2v-2l1-1v-1h1-1l-1-1v-6h1v1-1h2v1h2l1-1z"/>
    <path d="m186 251 1-1h1v-3h1v1l1-1h1v-5l1-1v-1l1-1h1v-2h1l1 1v1h2v-1h1l1 1h1l1 1h1v-1h2l1 1v1h5v-3h2v1h1l1-1h1l1 1 1 1v1l1 1h1l1 1h3l1-1v1l2 1 1 1h3v-1l1-1 1 1 2 3h1l1 3 1 2h1v1h2v-1l1 1h2v-1h1v1h1l1 1h4l1-1h1l3 1 3 1h2l2-1h1l1 1h2v1l1-1h1l1-1v-1l2-2v-4h2v-1h4v1h1v1l1 2v1h5l1-1h2l1 1v1h1l1 1h2v-1h1v1l1 1h8v1l1-1v2l1 1h-1 1v1h1v1h-2l1 1h1l1-1 1 1v3h-1v2l1 1 3 1h1l1 1h2l1 1h1l1-1h7v-1h2l1-1h1l1 1v1h3v1h2l1 1-1 1v2l-1 2v6-1h1v3h2l1 1v2h-1l-1-1h-2v-2h-7v-1h-2v-1h-3v-1h-2l-1-1h-1l-1-1h-1l-1-1h-1l-2 1h-1l-1 1h-3v1h-3v-1h-3l-1-1h-6v-1l-1 1-1-1h-2v1-1 1h-1v1l-1-1h-3v-1h-6v-1 1h-1l-1-1h-5v-1h-3l-1-1h-1v-1h-1l-4-2h-1l-1-1h-2l-1-1h-6v-1h-1l-3-1-1 1h-3v-1h-1v-1h-1v1h-2v1h-1v-1h-1l-1 1v1h-6l-3-1h-2l-1-1h-2v-1h-1v-1h-2v-1h-5l-1-1h-10l-1-1h-1v-1l-1-1 1-1h1v-1h1v-2l-1-1h-1v1h-2v-1h-1l-1-1-2-1h-4v1h-1v-1h-1l-2 1h-2v-1l-1 1v-1h-3v-1h1l1-1v-1h1v2h1v1h1v-2zM175 235v1h-1v-1h-1 2zm17-15v-5h1l-1-1v-2h-1v-4h-2v-1l-1 1v-1h-1v-1h1-1v-1l-1-1v-1h-1l-1-1h-2v2h-2v1h-1v2h-1v1l-1 1h-2l-3 2h-3l-1 1h-1v1h-1v1h-1v1l1 1v1h-1v2h1v2h-3l-1 1h-2l-1-1h-1v-1l-1-1-1 1h-1l-1 1 1 1h1v1h1l1 1h1v2h1v1h1-1v1h1l1 2h1l1 1h1v1h1v1h-1 1l1 1 1 1v1h1l1 1v1h3l-1-1v-1l-2-4h-1l1-1h1v-1 1h1l1 1 1 1h1l1 1 2 1 1 1h1l1-1h-1v-1h1v-1h-1v-1h1v-1h1l-1-1h1l2 2 1 1 1 1v-1l1 1v2h2v1h1v-1h1v-8l1-1v-5h1v-1l-1-1z"/>
    <path d="M134 229v1h-1 1v1l-1-1h-1v1l-1-1-2-2 1-1h1v1h1l1 1h1zm23-10h-1v-1l-1-2v-1h-1v-3h-2l-1-1h-3v-1h-1v-2l-1-1v-1h-5v-1h-1v-1h-1l-1-1 1-1 2-2h1v-1h2v-3h-1v-1h-2l-1-1h-1v1h-3v-1h-1v-3h-1l-1-1h-2v-2l-1-1h-1v-1l-1-1h-3v-1h-1l-1-1-1-1-1-1v-1h-1l-1-2v-1h-1v-1h-1l-1 1h-1v1h-2l-1 2h-1l1 2 1 1 2 1 1 1 1 2v1l3 4 1 1 4 3 3 2 3 2v2h1v4h1l3 2 3 2 3 3v1h1l2 1 2 1 2 2v1h1l1 1h2v1h2v-1h1l1-1z"/>
    <path d="M195 192v-3h-1v-1h-3v-4h-2v-1h-1v-1h-1v-1h1v-2h-2 1-4l-1-1h-1l-1 1h-1v-1h-3v1-2h-1v1h-1v1l-1 1v2l-1 1h-1l-1 1v1h-1 1v-2h1v-1h2v-3h-2l1-1h1l1-2h1v-3l-1-1-1 1h-1v-1h-1v1h-1l1-1v-1l-1-1h-1v1-2h1v-1h-2v-1h-1v1l-1 1h-1l-1 1h-1l-3-1h-1l-6 3v4h-2v1l1 1v1h-1l-2-2v-1h-1v-1h-1v4h-4v-1h-2v1l1 1-2 2-1 1v-1 1h-1v1h-2v1h-1l-1-1h-1l-1-1-1 1h-1v1h-2l1 1v1h1l1 1v2h2l1 1h1v3h1v1h3v-1h1l1 1h1l1 1h1v3h-2v1h-1l-2 2-1 1 1 1h1v1h1v1h5v1l1 1v2h1v1h3l1 1h2v3h1v1l1 2v1h1l1 1v1h1l1 1h2l1-1h3v-2h-1v-2h1v-2l-1-1h1v-1h1v-1h1l1-1h3l3-2h2l1-1v-1h1v-2h1v-1h2v-2h2v1h2v1l1 1v1h1-1v1h1v1l1-1v1h2l1-1v-1l1-2v-2l-1-1h-1v-1l1-3v-1l1-1 1-1h1v-1z"/>
    <path d="M208 187v1h1v1h-1v1-1h-2v-1h1v-1h1zm3 0h1v1-1h1l-1-1h-1v1zm6 0 1 1 1-1v-1h-1l-1 1zm4-1v1h-1v1h1v1h-1 1v4h1l2-1h1v-2h1v1l1 1v1h2v-1h1l1-1v-2l1-1v-3l-1-1h-1v-1h-1v-1h-1v1-1h-3v-1h-1v1h-2l-1 2v2zm-41-12 1-1v1h1v1l1-1h3l1-1v1h2v1h2v4h1v1h1v2l-1 1 1 1 1 2h2l3 2h1v1h2v1h1v1h1v-1h1v1h1v-1h1-1l1-1h-2v-1h-1v-1l1-3 1-1h1v-1h1-1l-2-1h-2l-2-1h-2v-1l-1-1-1-3v-5l-1-1v-1h-1v-3h-2v-1h-4v1h1v3h1v1h-1v-1 1h-1v-1h-1v-1h1v-1h-1v-1l-1-1v1h-2l-1 1h-1v2h1v1l-2 1-2 1v1h-1v1l1 1zM164 157v-1h1l-1 1zm0-1v1-1zm5 11v-1l-1-1v-5h-1v-4h-1l-1 1h-1l-1-1h-2l-1-1-1 1h-1v1l-1-1h-1v-1h-1v-1h-2v-1l-1-1-1 1v-1h1l-1-1-5 1h-6v1h-1v1h-1v1l-1 1v1h-3v-1h-1v-1l-1-1h-1v-1h-2v1h-3v1h-1v1h-2l1 1v1h1l-1 1v1h-2v4l-1 1-1 1h-1v1h-1v1h-1v-1l-3 1h-1l-1-1v2l1 1v2h1v1h1v2l1 2 1-1h1l1 1v1l1 2h1v1l1 1 1 1v1h2v1h5v-1h1l1-1v1h2l1 1h1v-1h2v-1h1v-1 1h1v-1l2-2-1-1v-1h2v1h4v-3h1v-1 1h1v1l2 2h1v-1l-1-1v-1h2v-4l6-3h1l3 1h1l1-1h1l1-1v-1h1v1h2l-1-1z"/>
    <path d="M82 167v1l-1-1v-1h-1 1v3h-2l-2-1h-1l-1-1-1-1v-2l-3-3v-2h-1l1-1v-3h3v-1h1v1h1v1-1h-1l1 1v1h1v1l1 1v2h1v1l1 1h-1v1h1l1 1v1h1v1zm9 10h-1v-1l-1-1v-1l-1-1h-2v2l1 1v1h2v1h2v1-2zm6 8v-2h-1v-1h-1l-1-1-1-1v3h1v3h2v-1h1zm4 8-1-1v-1h2v-2h-1l-1-1v-1l-1-1h-1v-1l-1 1v3l1 1h1v2h1v1l-1-1v1h1v1h1v1l1-1-1-1zm1-2v1h1-1v-1zm22-33v-1l-1-1v-1h-4v-1l-1-1-2-1-2-1-3-4-1-1-1-1-1-1-1-1v-1l-1-1v-1h2v-5h-2v-1h-1v-1h-2v-1l-1-1h-1v1h-1l-2-1v-1h-1v-4h-2l-1-1h-2l-1-1v1h-1v-1h-1v1h1v1l1 1v1h1v3h-4v-1h-3l-1 1h-1l-1 2-2 2h3v1h2l1 1h1l1 1 1 1h1v4h1v1l1 1v1h1l1 1 1 1 1 2 3 3 1 1v2h1v1h-1v1l1 1v1h1v1h1v1h1-1l1 1h-1 1v2l1 1 1 1 1 2 1 1v2l1 1-1 1v1l1 3 2 2h1l1-1 1-1h1l1-1-1-2v-2h-1v-1h-1v-2l-1-1v-2l1 1h1l3-1v1h1v-1h1v-1h1l1-1 1-1v-4h2v-1l1-1h-1zM173 126v1-1zm-1-1h-1 1zm-5 19h2v-1l-1 1h-1zm3-18h1-2 1zm-14 0v-1h-1v1h1zm-4 3v-1h1v-1h-1v2zm-1-5h1-1zm15 24v1l1 1v-1h2v-1h1v-1h1v-1h-1v-1h-1l-1-1v1l-1 1v-1l-1 1v-1l-1 1v1l1 1zm6-8v1l-1-1h1l-1-1h-1v-1 1h-1v2l-1 1v1h4l1-1v1h1l1 1h3l-2-1-1-1v-1h-1v1h-1v-1h-1v-1zm-2-5h-1v1h1v1h1v1h1l-2-3zm-1 3-1-2h-1l1 1h-1 1v1l1 1v-1h-1 1zm-2-5h-1l1 1h1v-1h-1zm-2-6h1-1v-1h-1v1h1zm0 1v-1h-1l1 1zm-3-5v1h1v1l1 1 1-1v-1h-2v-1h-1zm12-1v1h1v-1h-1zm-9-1v1h2l1-1v1h1-1v1h1v1h-1 1v1h2v-1h1v-1l-1-1h1v-1l-1-1h-1l1-1h-1v-1 1h-4v1h-1l-1 1h1zm-6 0 1 1h2v-1h1v-2h-1v1l-1-1v1h-1v1h-1zm-1 2h2v-1h-2v1zm0 2h1v1h1l-1-1-1-1v1zm-2 0h1v1h1v-1h-1v-1h-1v1zm-5-1v1h1l1 1v-1h-1l-1-1zm1 3v-2h-1v-1h-1v3l1 1h1v-1zm-2-5h1v-1h-1v-1l-1 1 1 1zm39-33v3l1-1h-1 1v-1l1 1v-2h1-2v-1h-1v1zm9 3v1-1h-1 1zm0-6v1h1v-2h-2l1 1zm1-1-1-1h1v-1h-1v2h1zm27-24h1v-1h1v-1h-1v1h-1v1zm-2 28v-1l-1 1h1zm17 2h1v-2l-1 1-1 1h1zm3 6h1-1 2-1v-1h-1v1zm-24 25v1l1-1h-1zm7-50h1v2l1 1h3v2-1h-2l-1 1 1 1h2l1-1v-1l1-1v-1h-1 1v-2l-1-1-1-1v-2h-1l-1 1-1 1v1h-1l-1 1z"/>
    <path d="M142 134h1-2 1zm3-6v1-1zm0-1v-1h1v1h-1zm12 17v1h-5v-1l1-1h3v1h1zm-10-16v-1h1v1h1v2h-3v-1l1-1zm-9-6v-1h1v-1l1-1 1 1h1l1 1h2v1l1 1 1 1v1h-2l-2-2h-1v-1h-4zm-3-2h1l1 1 1 1h-1 3l1 1h1l2 2h1v2h-1l-1-1h-3l-1-1-2 1h-1l-1-1-1-1 1-1h1l-1-2v-1zm-7-7-1-1h2l1 1h4l1 1 1 1v3h-1l-1-1-1-1v-1h-4v-1h-1v-1zm3 6v-4h1l1 1v1l2 1v5h-2l-1-1-1-1v-2zm-14-12v-2l1-1h1v1h1v-1h1v-1l1 1 1 1v4h-1v1h-3l-1-1v-1l-1-1zm40 32h-2v1h-1v-1h-1v1h1v1h-2v1h-1v1h-3 4v1h-1v1h-1 3v1h1v1h-1l-2 1v-1h-1v-1 2h1v1l-1 1v1h1l-5 1h-6v1h-1v1h-1v1l-1 1v1h-3v-1h-1v-1l-1-1h-1v-1h-1l-1 1h-3v1h-1v1h-2v-1h-4v-1l-1-1-2-1-2-1-3-4-1-1-1-1-1-1-1-1v-1l-1-1v-1h2v-5h-2v-1h-1v-1h-2v-1l-1-1h-1v1h-1l-2-1v-1h-1v-10h1-1v-1l-1-1v-1l-1-1v-1h1l3-1 1-1h1v-2l-1-1v-2h-1v-7l-1-1 1-3v-1l1 4h1v1l1 1 1 1h2l2 2h1v1l1 1v1h1v-1h-1v-2l-1-1-1-1v-2h2v-1l2 1 1 1 2 1 1 2h1v3l1 1v1h1l1 1h4l5 4 1 1h1v3h1l-1 2 1 1v1l2 1 1 1 1 1h1v1h1l1-1 2 1h3v1l2 2v2l-2 1h-1l-2 1-1 1h-2v1h-1v-1h-2 2v1h2v-1h4v-1h2l1-1 1-1h1v-1h2v-1h2l1 1 1 1 1 1v1-1h1l1 1 1 1v4z"/>
    <path d="M70 112h-1l-1-1v-1 1h2v1zm-11 10v-1h-2v-1l-1-1h-1l-1-1v-2h-1l-1-1v-1h-2l-1-1v1l-1 1h-3v1-1 1h1v1h1l1 1v1h1v1l1 1v2h2v1l1 1h1v2h1v2h2v1l1-1v-2l1-1v-4zm11 14h-1v1h1l1 1v-1l2 1v-1h1l-1-1h-3zm-3 7v1l-1 1v2h-1l2 1v1-1h2l-1-1h1v-1l-1-1h1l-1-1v-1h-1zm0-4h-2 1v2-1 1l1 1 1 2 1 1v-1h1v-1h-1v-1h-1v-2h-1v-1zm34-27v1h-1l-1 1-4 1v1l1 1v1l1 1v1h1-1v6h-2l-1-1h-3v-1 1h-1v-1h-1v1l1 1 1 1v1h1v3h-4v-1h-3l-1 1h-1l-1 2-2 2h-1v-1h1v-1h-1v-4l-1-1v1-3l-1-1v-1l-1-4-1-2-1-1v-1l-1-1v-1h-1v-1h1v-1h1v-1h-1v-2h-1v1l-1-1-1-2h-1l-1-1h-1v-1h-2v-1h-1l-1-1-1-1v-4h-1v-4h1-1v-3h-1v-1h-1v-2h-1v-1h1v-2h-1v-1h2v-1l-1-1v-2h-1v-1l-1-1v-2l1-1h1v-1h-1l1-1v1-1h1v-1h1v-3h1v-1h-1 1l1-1h2v2h-2v1h1v-1h1v2h3l1 1h1v1h2v2l1 1 1 1 2 1h3v1l2 1 2 2h1l1 1v1h1v1h3v1h1v1l1 1v1l1-1v1h1v1h1v3h-1v1h1v1-1h-1 1v-1h1v3h1v1-3h2v2h1v1l-1 3 1 1v7h1v2l1 1v1zM80 99l-1-1-1 1v-2h-1l-1-1v-2h-1l-1-1-1-1-1-1h-3v1l1 1v1h1v1h1v-2h2v1l1 1v1l1 1h1v1h-2l-1-1h-1l-1-1v-1 2l2 1v2h4l1-1h1z"/>
    <path d="M13 45h-1l1-1v1zm-1-1v-1 1-1h-2 1v1h1zm2-3h1v1h2v-1h-1v-1l-1 1v-1h-1v1zm21 58v-1l-1-1v1h-1v-2h-2l-1-2h-1 1v1h-1v-1 1-2h-2v-1h-1v-1h-1v-1h-2v1h-1v2h1-1 1v2h2l1 1v-1h1v1-1 1h1l3 2h1v1l1 1v-1l1 1 1-1zm3 4h-1v1h1v-1zm7 1v1h1v-1h-1zm3-2h-3l2 1h1v1h1v1-3h-1zm17-37-1-1h-1v-1h-3v-4l-1-2h-1l-1-1-2-2-3-3-4 2h-1l-1-1v-1h-6l-2 1h-3v-1l-1 1h-1v-1h-4l-1-1-2-2h-1v-1h-1l-1-1-3-1h-2l-1-1v1h-2v1h-2 1v4h-1l1 1v1h1v2h1v1l1 1v2l1 1 1 1v1h1v1h1l1 1 1 1 1 1 1 1 2 2 1 1 1 1h1l2 2 2 3 1 1h5v1h2v2l2 1 2 4v1h2v1l1 1v1l1 2h2l1 1h1v3l1 3v3l1 1h4l2 1v-4h-1v-4h1-1v-3h-1v-1h-1v-5h-1v-1h2v-1l-1-1v-2h-1v-1l-1-1v-2l1-1h1v-1h-1l1-1v1-1h1v-1h1v-3h1v-1h-1 1l1-1h2v-2z"/>
    <path d="M110 108v-1h-1v-2l-1-1-1-1v-2h2v-1l2 1 1 1 2 1 1 2h1v3l1 1v1h1l1 1h4l5 4 1 1h1v3h1l-1 2 1 1v1l2 1 1 1 1 1h1v1h1l1-1 2 1h3v1l2 2v2h-2v1h-1l-2 1-1 1h-2v1h-1v-1h-2 2v1h2v-1h4v-1h2l1-1 1-1h1v-1h2v-1h2l1 1 1 1 1 1v1-1h1l1 1 1 1v4h1-3v1h-1v-1h-1v1h1v1h-2v1h-1v1h-3 4v1h-1v1h-1 3v1h1v1h-1l-2 1v-1h-1v-1 2h1v1l-1 1v1h1l1 1h-1v1l1-1 1 1v1h1l1 1h1v1h1l1 1v-1h1l1-1 1 1h2l1 1h1l1-1h1v4h1v5l1 1v1l1 1v1h-1v2-1h1l1 1v1l-1 1h1v-1h1v1h1l1-1v1h1v3l-1 1-1 1h-1l-1 1h2v3h-2v1h-1v2h-1 1v-1h1v-1h1l1-1v-2l1-1v-1h1v-1h1v2-1h3v1h1l1-1h1l1 1h4-1 2v4h1v1h2v4h3v1h1v5h-1l-1 1-1 1v1l-1 3v1l1 1h1v2l-1 2v1l-1 1v3l1 1v1l1 1h-1l1 1h-1v1l1 1h-1v3l1 1v1h-1v5l-1 1v8h-1v2l-1-1v-1h-2v-2h-2v-1l-1-1-1-2h-1l-1 1h1-1v1h-1v1h1v1l-1 1h1v1h-2v-1l-3-1-1-1h-1l-1-1v-1h-3l-1 1h1l2 4v1l1 1h-3v-1l-1-1h-1v-1l-1-1-1-1v-1h-1v-1h-1l-1-1h-1l-1-2-1-1h1-1v-1h-1v-2h-1l-1-1h-1v-1h-1l-1-1h-1v-1h-2l-1-1h-1v-1l-2-2-2-1-3-1v-1l-3-3-3-2-3-2h-1v-3l-1-1v-2l-3-2-3-2-4-3-1-1-3-4v-1l-1-2-1-1-2-1-1-1-1-2-2-2-1-3v-1l1-1-1-1v-2l-1-1h-1v-2l-1-1h-1v-2l-1-1v-2l-1-1h-2 1v-1l-1-1v-1h1v-1h-1v-1l-1-1v-1l-3-3-1-2-1-1-1-1h-1v-1l-1-1v-1h-1v-3l-1-1h-1v-1l-1-1h-1l-1-1h-2v-1h-4v-1h1v-1h-1v-4l-1-1v1-3l-1-1v-1l-1-4-1-2-1-1v-1l-1-1v-1h-1v-1h1v-1h1v-1h-1v-2h-1v1l-1-1-1-2h-1l-1-1h-1v-1h-2v-1h-1l-1-1-1-1-2-1h-4l-1-1v-3l-1-3v-3h-1l-1-1h-2l-1-2v-1l-1-1v-1h-2v-1l-2-4-2-1v-2h-2v-1h-5l-1-1-2-3-2-2h-1l-1-1-1-1-2-2-1-1-1-1-1-1-1-1h-1v-1h-1v-1l-1-1-1-1v-2l-1-1v-1h-1v-2h-1v-1l-1-1h1v-4h-1 2v-1h2v-1l1 1h2l3 1 1 1h1v1h1l2 2 1 1h3l1 1h1l1-1v1h3l2-1h6v1l1 1h1l4-2 3 3 2 2 1 1h1l1 2v4h3v1h1l1 1v4h-2v1h1l1-1v2h3l1 1h1v1h2v2l1 1 1 1 2 1h2l1 1 2 1 2 2h1l1 1v1h1v1h3v1h1v1l1 1v1h2v1h1v3h-1v1h1v1-1h-1 1v-1h1v3h1v1-3h2v2h1l1 4h1v1l1 1 1 1h2l2 2h1v1l1 1v1h1M79 98l-1 1v-2h-1l-1-1v-2h-1l-1-1-1-1-1-1h-3v1l1 1v1h1v1h1v-2h2v1l1 1v1l1 1h1v1h-2l-1-1h-1l-1-1v-1 2h1l1 1v2h4l1-1h1l-1-1z"/>
  </g>
  <g fill="none">
    <path d="m735 182-2-1-1-2v-1h-2v-1h-2v-1l-1-1h-1v-1h-1v-2h1v1-1h1v-1l-1-1v-2h1-1v-1h1v-3M741 192h-1v1h-1v-5h-2l-1-1v-4h-1v-1M767 241v1h-1 1v3l1 1v-1 3l1 2-1 1v1h-1v1h-2v2l-1 1v2h-2v1h-1l-1-1v-1h-2v2l-1 1v1l-1-1v-1h-1v1h-2v-2h-2v1h1v1h-1v-1h-2M772 227h-1v1h-1v2h-2v1h-1v1l-1 1v4h1v4M774 220v1h1v1h-1v4h-2v1M761 200v-1h-2l-1-1h-3v-1l-1 1v-1h-2v-1h-1v1h-1v-1h-2v1-1l-1-1v-1h-1l-1-1v1l-1-1h-1l-1-1v1-1h-1M767 201h-1v-1h-5M287 136h-1v2l-1-1h-1v1h-1v-1 1h-1v-1h-1v1h-1v-1l-1 1v-1h-1v1h-3v1h-1l-1-1 1-1h-1v1h-1v1-1 1h-1v-2l-1 1v1-1h-1v1l-1 1h-1l-1 1-1-1h-4l-1 1v1l-1 1h-2v1h-1l-1 1h-3 1-1l-1-1h-1v-1l-1 1v-1h-1M315 123h-2l-2 1h-1l-1 1h-6v1-1 1h-2v1h-1v1h-1v-1l-1 1h-2v1l-1-1h-1v1h-1 1v1h-1v1h-1v1l-1-1v1h1-1v1h-1v1-1h-1v1-1h-1v2-1 1h-1v1M319 119h-1l-2 2v1h-1v1M131 146h1v-1h2v-1 1h2l1 1h2v1h1l1 1h1l3-2 2-1v-1h1l2 1M109 150h2v-1l1-1v1h1l1 1h1l1-1h1l1 1h1v-1l1-1 1-1h3l2 1h3v-1h2v-1M103 148h2v1h1l1 1h1l1-1v1M342 165v1h-1v1h1v1h-1v2h1v1l1 1v1l-1 1v3h1-1v1h1v2l-1 1-1 1v2l-1 1v1h1v2l-1 1h1l-1 1h-1v1h-1l-1 2v2M339 135v1h-1v1h-1v-1h-5v1h-1v1-1 2h2v1l-1 1-1 1h-1l-1 1v4h1v1h1l1 1v1l1 1h4v-1h1l-1-1h1v1h1v-1l1 1v-1h1v2h1l1 1v3h-1l-1 1h1v1l1 1h-1v1l-1 1h1v1h1l-1 1h1v1h-1v2M342 129v3h-2v1l-1 1v1M346 106h3v-1h2v1l1-1h1v1h2v-1h1v-2h1v-1h1v-1l1 1v2h1v1h2v-1h2v-2l1-1-1-1h1l1-2h1v-1h1v-1h1v-1l1-1 1-1v-1h2l1 1v1h1v-1l1-1h3l1 1h1v-1l1 1h1v-1h1v-1h1v-1h2M340 110l1-1 1-1v-1h1l1-1v1-1h2M291 101v-2l1-1v-2h-1 1l-1-1v1-2h1v-1h-1v-1h-2v-1M786 220h-1l-3-1v-1h-1 1v-1h-2l-1-1v-1h-1v-4h1v-3h1v-1h2l1-1h-1 1v-1 1l1-1h1l1-1v1M139 80h1l1 1h5l1-1h3l1 1v-1M138 64h-2v-1l-1 1v1l-1 1v1l-1 2v1l-1 1 1 1v1h1v3h-1v1l1 1v5h1-1 1v1-1h1v-1l1-1v-1h2v1-1 1"/>
    <path d="M140 65h-2v-1M750 222v2h-1v1h-1v1h-2v1h-2l-1 1v1l1 1h-1v2h-1v1h-4v-1l-1 1h-1v1h-1M743 204l1 1v1l1 1v1h1v2h1v2h2v1l1 1 1 1h1v1h-1v4l-1 2M733 204h2l1 1 1-1 1 1h2v-1h3M352 134h1v1h1v3h1v2h1v-1 1h1v1h1v2l1 1v-1 1h1v-1 1h3v1h6v-1h2v-1h1v-1h2l1 1v1h4v1h-1v4h1v-1h3v1h2l1-1M332 120l-1 1v1l-1 1-1 1v1h1v1l1-1h1v1h1l1 1h1l1-1h1l1-1 2-1h5v2h1v1h1l1 1v1h2v1l1 1h1v3h1M334 116l-1 1v2h-1v1M289 101l-1 1v1-1h-1v1h-1l-1-1v1h-1"/>
    <path d="M302 105h-3l-1-1h-1v-1h-3l-1-1h-1v-1h-1v1-1h-2v-1l-1-1v1h-1v-1h-1v1M320 97v1h-1l-4 2h-1l-1 1h-1 2v1h-2v2l-1 1h-9M324 94l-1 1-1 1-2 2v-1M786 264h-1v2"/>
    <path d="M779 254v1h1v2h1v1h1v2h-1 1v1h1-1 1v3h1-1 1v1h1v1h1-1v1-1l1 1M786 240v1h-2v1h-3v1h-1v1h1-2v1h-1v1l-1 1h1v1l-1 1-1 1h1v1h-1 1v2l1 1h1M80 99v-2l2-1h1l1-1h1v-1h3v-1l1-1h1v-1h1v-2M110 58v2l-1 1v8l1 1 1 1v1l-1 1h-2v-1M117 43v2l-1 1v2l-1 1v1h-1v-1h-1v2l-1 1-1 1v1h-1v3-1 2M122 44v-1h-1v-1h-4v1M297 181l1 1v3l1 1v3l1 3 1 1h2v1h1v1h-1l1 1M294 160v8l1 1h1v2h1v1l1 1v1h-1 1v1h-1v2l1 1-1 2v1h1M294 154v1l1 1v2l-1 1v1M160 188h2v1h1v1h1l1-1h3v1h2l2-1h2l1-1h1v-2l1-2v-3h1v-3M137 200l1 1h1v1h4v-2h1l1-1 1-1 1-1h2v-5l-1-1v-1l1-1v-3h1v-1h5v1h1l1 1h3v1M137 194l-1 1v4l1 1M335 75v-1h1-1v-2h-1v-1h-1v-1h-1 1v-2h-1v-1h1v-1h-1v-2h-1v-1h-2l-1-1M349 85v1h-2l-1 1v1h-1l-1 1h-2v-1h-1v-5h-3l-1-1v-1h-1l-1-1v1-5h-1 1v-1M352 81v1l-1 1v2h-2"/>
  </g>
  <g fill="none" stroke="#00809E" stroke-width=".5">
    <path d="M416 50v2h-1v1l-1 1-3 1-3 1h-5v1-1h-1v-1h-3v1h-1l-1 1v1h1v1l1 1 1 1h1v1h2v1h-1 1v1l1-1h1v2h-1 1l-1 1h-4l-1 1h-2l-2 1h-2l-1-1h-1v-1h-2v-1h-1v2h1v1h-1v1l-1 1h-1l-2-1v1h1-1v1h3l1 2h1v1h-1v-1h-1l1 1h1l1 1 1 1h-1l1 1h1-1v1h-4v-1h-1v-1 2h1l-1 1-1-1h-6l-1 1h3v1h1v1h1v1l1-1h1v2h-1v2h-1v-1h-1v1h1l1 1h2l-1 1h3v1l-1 1h2v1h-2 2l1 1h-1l-1 1h2v1h1v2l1 1h1l1 2h1v2-1l1 1v2h-2v1l-1 1h-1l1 1h-3 2v3h1v1h2v1l2 1 1 1 1 1h1l1 1h1v1h-1 1v1h2l1 1 1 1h1v1h1l-1 1h1l1 1h2v3h-1l-1 1h-1v1h-1v-1h-2l-1 1-1-1h-2v1-1h-1l-2-1h-2l-1-1v-1l-1-1-1-1v2h1v2h1v2h-1v-1h-2l-1 1-1 1v2h-1v1l-1 1v1l-1 1-1 1v1h1l-1 1v3h1v1h-1v2l-1 1v1l1 1v1h-1v1h1l-1 1h1l2-2h1l-1 1h-1v1h1v1h-1v2h-1 2v1h-1v1h-2v1l-1-1v1h-1v-1h-1v2h-1v1l-2 2h-1v2h-3v-1h-1v-2h-1l1-1h-1v2h1v1h-1l1 1v2h-1l-2 1-1 1v2l-2 1h-2v1h-1v1h2v-1h1v1h1-1v1h1v3h-1v1h-1l-1 1h2v1l1-1h1v1h1v-1 1l-1 5v1h-1v-1h-3v2l1-1h1l-1 1v5l-1 1h-1v-1h-1v-2h-1v3h1v1l1 1h1l-1 1h-1v2h-1v-1h1-1v1h-1l-1 2v3h-2l-1 1-1 1-3 1-4 2-5 2-3 1-2 2h-2v-9l-1-1-1-1v-1l1-2h-1v2h-2l-2-1v-1h1v-2h1-1l-1 1v1h-3v-1l1-1v-1h-1v2l-1 1-1 1h-1l-1 1h-4v-2h1v-2l-1-1h-3v1h-1v-1h-1l1 1v1l-1-1-1-1-1-1v-1h-1l-2-2 1 1h-1v1h-1v2h1l-6 4h-1v1h-1v-1l-2-1h-1l-1-1-1 1h-2l-2 3h-1v1h-1l-1-1v-1h1v-2l-1-3v-3l-1-1v-3h-1v3h-1l-1 1h-1v-1h-4l-3 2-2 1-1-1h-3v-1h1v-1h1l2-1h-1v1h-2l-1 2h-2 1v-1h-1v-2h-2l-1 1-2 1h-1v-1l-1-1h1v-3h-1v-2h1l1-1h-2v-2h-1v-2l-1-1 1-1v-2l-1-1v-1h-1v-1h-1l-1-1h1-1l1-1h1v-2l1-1v-4l-1-1h-1v-3h-2v-1h-1v-1h-1v-1h1v-1l-1 1v1h-2v-1h-1v-1h-2v1h-2v-1l-1-3h3v1h2-1v-1h-2v-1h1-3v-1h-2v-5h-1l1-1h1v1h1l-1-1v-4 1h2l-1-1-1-1-1-2-1-1h-2v-6l-1-1v-3h2v-2l-1-2v-1h2l1-1h1l1-1v-1h1l-1-1v1h-1v2h-3v1-1l1-1v-4h1l2-2h1v-2h1-1l1-1v-2h4v-1l1-1v3l1 1 1 1h2v1l1 1h1v-1h3v1h1v-1l1 1v-2h1v2h1v-1h2-1v2h2l1 1h1v1l-1 1h1v-1h1v-1h2l1 1 1 1 1 1h4v1l1-1h-1v-1h-2v1l-1-1h-1v-1h-1v-3h2v1h2l-1-1h-1v-1h-1v-1h1-1v-1h1v-1l1-1v-2h1v-1 1h1v-1h1-3v-1h1-1v-3l1-1v1h1v1h1v-1h1l1 1v-1h-1v-1h-1v-1h1v1h1v-1h-1v-3l1-1 2-1 1-1h6l4-2 5-1h2l1-1h1l3-1 1-1v-1h1l1-1v-1l2-1v-2h1l1-1v-2h1l4-4 4-5v-1l1-1v-1l-1-2h6l1-1 3-1 1-1 2-2 3-2 2-1h1v1h-1v1l-1 1h1v2h1v-1h1l-1-1h2v-1h1v1h2v-1h1v-1h1l1-1v-2h1-2l-2-2h-1 1v-2h1v-1l2-1v-1h1l-1 1 1 1v-1l1 1h2v-1h1v-1l1-1v-2h2v-2l1-2 1-1h-1v-1h1l1-1h1v-1h-1 1v-1h1v-1l1-1h1l1-1v-1l1-2h1v-3h1v-2h1v-1 1h1v3h1v1h-1v1l-1 1v1h1l1-1 1-1h1v-2h1v-1l-1-1h1v-1h2l1 1v3h1v2h1l1 1 1 1v-1l1-1v2h2v1h1v3h-1v1h-1v1l1 1v2l-1 1h-2v1l1-1h5l1-1h1v-1h2v2l1 1-1 1h-3v1l1 1h1l1-1v1h1v-1h1l-1-1h5l1 1 1 1h1l-1 1v2-1h1v-1h1l1 1h1v1h1v1h1v1h1v-1h1v1h1l1-1h1v1h1v1M110 108v-1h-1v-2l-1-1-1-1v-2h2v-1l2 1 1 1 2 1 1 2h1v3l1 1v1h1l1 1h4l5 4 1 1h1v3h1l-1 2 1 1v1l2 1 1 1 1 1h1v1h1l1-1 2 1h3v1l2 2v2h-2v1h-1l-2 1-1 1h-2v1h-1v-1h-2 2v1h2v-1h4v-1h2l1-1 1-1h1v-1h2v-1h2l1 1 1 1 1 1v1-1h1l1 1 1 1v4h1-3v1h-1v-1h-1v1h1v1h-2v1h-1v1h-3 4v1h-1v1h-1 3v1h1v1h-1l-2 1v-1h-1v-1 2h1v1l-1 1v1h1l1 1h-1v1l1-1 1 1v1h1l1 1h1v1h1l1 1v-1h1l1-1 1 1h2l1 1h1l1-1h1v4h1v5l1 1v1l1 1v1h-1v2-1h1l1 1v1l-1 1h1v-1h1v1h1l1-1v1h1v3l-1 1-1 1h-1l-1 1h2v3h-2v1h-1v2h-1 1v-1h1v-1h1l1-1v-2l1-1v-1h1v-1h1v2-1h3v1h1l1-1h1l1 1h4-1 2v4h1v1h2v4h3v1h1v5h-1l-1 1-1 1v1l-1 3v1l1 1h1v2l-1 2v1l-1 1v3l1 1v1l1 1h-1l1 1h-1v1l1 1h-1v3l1 1v1h-1v5l-1 1v8h-1v2l-1-1v-1h-2v-2h-2v-1l-1-1-1-2h-1l-1 1h1-1v1h-1v1h1v1l-1 1h1v1h-2v-1l-3-1-1-1h-1l-1-1v-1h-3l-1 1h1l2 4v1l1 1h-3v-1l-1-1h-1v-1l-1-1-1-1v-1h-1v-1h-1l-1-1h-1l-1-2-1-1h1-1v-1h-1v-2h-1l-1-1h-1v-1h-1l-1-1h-1v-1h-2l-1-1h-1v-1l-2-2-2-1-3-1v-1l-3-3-3-2-3-2h-1v-3l-1-1v-2l-3-2-3-2-4-3-1-1-3-4v-1l-1-2-1-1-2-1-1-1-1-2-2-2-1-3v-1l1-1-1-1v-2l-1-1h-1v-2l-1-1h-1v-2l-1-1v-2l-1-1h-2 1v-1l-1-1v-1h1v-1h-1v-1l-1-1v-1l-3-3-1-2-1-1-1-1h-1v-1l-1-1v-1h-1v-3l-1-1h-1v-1l-1-1h-1l-1-1h-2v-1h-4v-1h1v-1h-1v-4l-1-1v1-3l-1-1v-1l-1-4-1-2-1-1v-1l-1-1v-1h-1v-1h1v-1h1v-1h-1v-2h-1v1l-1-1-1-2h-1l-1-1h-1v-1h-2v-1h-1l-1-1-1-1-2-1h-4l-1-1v-3l-1-3v-3h-1l-1-1h-2l-1-2v-1l-1-1v-1h-2v-1l-2-4-2-1v-2h-2v-1h-5l-1-1-2-3-2-2h-1l-1-1-1-1-2-2-1-1-1-1-1-1-1-1h-1v-1h-1v-1l-1-1-1-1v-2l-1-1v-1h-1v-2h-1v-1l-1-1h1v-4h-1 2v-1h2v-1l1 1h2l3 1 1 1h1v1h1l2 2 1 1h3l1 1h1l1-1v1h3l2-1h6v1l1 1h1l4-2 3 3 2 2 1 1h1l1 2v4h3v1h1l1 1v4h-2v1h1l1-1v2h3l1 1h1v1h2v2l1 1 1 1 2 1h2l1 1 2 1 2 2h1l1 1v1h1v1h3v1h1v1l1 1v1h2v1h1v3h-1v1h1v1-1h-1 1v-1h1v3h1v1-3h2v2h1l1 4h1v1l1 1 1 1h2l2 2h1v1l1 1v1h1M79 98l-1 1v-2h-1l-1-1v-2h-1l-1-1-1-1-1-1h-3v1l1 1v1h1v1h1v-2h2v1l1 1v1l1 1h1v1h-2l-1-1h-1l-1-1v-1 2h1l1 1v2h4l1-1h1l-1-1zM259 270h1l1 1 5 2h1v1h1l1 1h3v1h4l2 1h1v-1 1h6v1h3l1 1v-1h1v-1 1h1v-1h1l1 1 1-1v1h6l1 1h3l1 1h2v-1h3l1-1h1l2-1h1l1 1h1l1 1h1l1 1h2v1h3v1h2v1h7v2h2l1 1h1v-2l-1-1h-2v-3 1h-1v-2l1-4v-4l1-1h-1v-1h-2v-1h-3v-1l-1-1h-1l-1 1h-2v1h-7l-1 1h-1l-1-1h-2l-1-1h-1l-3-1-1-1v-2h1v-3l-1-1v1h-2l-1-1h2l-1-1v-2h-1v-2l-1 1v-1h-8v-1l-1-1h-1v1h-2l-1-1h-1v-1l-1-1h-2l-1 1h-5v-1l-1-2v-1h-1v-1h-4l-1 1h-1v4l-2 2v1l-1 1h-1l-1 1v-1h-2l-1-1v-1 1h-1l-2 1h-2l-3-1-3-1h-1l-1 1h-1l-3-1h-2l-1-1v1h-2l-1-1v1h-2v-1h-1l-1-2-1-3h-1l-2-3-1-1-1 1v1h-3l-1-1-2-1v-1l-1 1h-3v-1h-2l-1-1v-1l-1-1-1-1h-1l-1 1h-1v-1h-2v3h-5v-1l-1-1h-2v1h-1l-1-1h-1l-1-1h-1v1h-2v-1l-1-1h-1v2h-1l-1 1v1l-1 1v5h-1l-1 1-1-1v3h-1l-1 1v1l-1 1v-1h-1v-2h-1v1l-1 1h-1v1h4v1h2l2-1h1v1h1v-1h4l3 2h1v1h2v-1h1l1 1v1l-1 1v1h-1l-1 1 1 1v1h1l1 1h10l1 1h5v1h1l1 1h1v1h2l1 1h2l3 1h6v-1l1-1h1v1h1v-1h2v-1h1v1h1v1h3l1-1 3 1h1v1h6l1 1h1M425 154l1-1v-2h-1v-2l-1-1v-6h1v-1h-2l-1-1v-1l1-1v1h1v1h2v-3l-1-1-1-1h1l1-1v-3h2l1-1v-1l-1-1v-1h1l1-1h1l1-1v-2l1-1 1 1v2-1 1h2v1-1h1v1h1v-2l1-1v-1h1v1-1h1v-2l1-1v-2h1v-1 1h1v-1l2 1h1l1 1h4v-1h1v1h-1v1l1 1 1 1h7v1h1v-1h1l1 1h6v1h3v1h1l1 1h2v-1l1-1h2l1 1v-1h2v1h1v-1h1v1-1l1 1h3v1h5v-1h1l2-1h1l1-1h1v-1l1-1v-1h4v-1h-1v-2h1v-1l2 1v-1h2v-3l2-1v-1h1v1h3l-1 1 1 1h1v1l-1 1h-1v1h-1l-1 3-1 2-1 1v1h-1l-1 1h-1v1h-1v1h-1v2h-1l1 1h-1l-1 1v1h-1l-1 1h-1l-2 1h-1v-1l-1 1h-3v1h-4v1l-1-1h-6v-1l-1-1-1-1-1-1v1h-6v-1h-1v1h-11l-1 1h-2l-1-1v-1h-4v1h-6v1h-2v-1h-1v1h-2v-1h-2v-1h-4l-1 1h-1v1h-1v1l-1 1-1 1-1 1v2l-1 1v1h-1v5l1 1v4l3 4 1 1 1-1h1v1h1v1h1l1 1v2h-1l1 1 1 1v1h1l1-1h1v1h3v1h1l1-1 1-1v-2l1-1 1-1 1-1 1-1v-1l1-1h2-1 1v-1h1v2l1 1h4v-1h3v-2h13v-1h-1l-2-1h1v-1h4v-1l3 1h2l1 1v1h1v2h-1v3h-1l-1 1v-1h-1v-1h-1v-2h-1l-1 1h-4l-1 2v1l-1 1h-1v1l-1 1-1 1v1h-1l-1 1v1l-1 1h-2v1h-3l-1 1h-2l-1 1v1l-1 1v1h-3l-1-1h-1v-1h-2v3h1v-1h1v1l1 1h1v2h2l1 1h1v1l1 1v1l1 1 1 1v1h1v3h2v1h1v1h1l1 1h-1v2h1l1 1h1v2h-2l-1 1 1 1h1v1h-1 1-1v-1h-1v3h-1v2h2v1h2v1l1 2h3l-1 1h-1v1h2v2h2v-1h-1l1-1 1 1v1l1 1v1h-1v1h1v1h-1v1h-1l-1-1-1-1 1 1v2l-1-1v1-1h-1l-1-1v1h-4l-1 1h-2l-1 1-1 1v2l1 1h1-1v1h-4l-1-1v1h-2v-1h-1l-1-1-1-1v-4l1-1v-2l1-1v-2l-1-1h-2l-1-1h-1v-1h-1v-1h-1l-1-1-1-1-3-3v-1h-1 1v-2h1v-1l1-1h1v-3h-1 1v-3h-1v-1 1-1h-1 1v-1h1l-1-1v-1h-5l-1 1h-1l-1 1-4 2-1 1h-1v1h1v1l1 1h-1l1 1h1v1h1v9l-1 1v10h1v3l1 1h-1v2l-1 1h-1v5h-1l1 1v1h1v2l1 2v1l1 1h-1l-1-1v-1h-1l-1 1h-6v1h-1v1h-3v-1h-1v1l-1-1v-1h-2l1-1h-1v-1l-1-1v-2l1-1v-2h1v-2l1-1-1-3h1v-1l1-2v-2l1-1v-2h-1l1-1v-1h-1v-1h1v-2h-1v1-1l-1-2v-1h-1v-3h1v-2h-2v-1h-2l-1 1h-2l-1 1h-1l-1 1v-1l-1-1v-3l-1-1v-2h-1v-1h2v-3l-1-1-1 1v-2h1v-2h3v-1h1v-1h1l1-1v-1l-1-1v-2h1v-2l1-1v-1h2v-3l-1-2v-1h1v-1l-1-1v-2h1v-1l-1-1 1-1 1-1h1v-3h1v-2h1v-1h1l1-1h-1v-1h1l1-1v2l1 1v2M786 254h-1v-1h1v1zM786 258z"/>
    <path d="M786 292h-2l-1 1h-2l-2-2h-1l-1-1-4-4-2-3-1-1-1-1h-1l-1-1-1-1-3-2-1-1v-2h1v-2h1l1-1h-2v3h-5l-2 1h-1l-1 1h-4v-3l-1-1h1-1v2l-1 1h-1l-2 1v1l-1 1-1-2v-2h1v-3h1v-1h1v-4h1v-1h-1v-1h-1l-1-1v-1h-1v-1l-1-1h-2v-1h5v1h4v-1h1v-1h-1v1h-4l-1-1h-3l-1-2-2-1 1-1h3l2-1h1v1h1v1h3-2l-1-2h-3l-1-1h-1l-1-1v-1h2l1 1-2-1-1-1-1-1-2-2-1-1v-1l-1-1v-3h-1l-1-2v-1h2l1-1h-1v1h-1l-2-1-1-1h2l1-1h1-3l-1 1h-1v-3h1v-1h-1v-2 1h-1v1-1h-1l-1-1 1-1h-1l-1 1v-1h-1v-1h1-2v-1h-2v-2h-1v1h-1v-1h-2v-1l-1-1v1l-1-1 1-1-1 1v1l-1-1h-2l1-1h-1v1h-1l-1-1h1v-1h-1l-1 1h-1v-1h-3l-2-1-1-1h-1v-1h-4v-1h-2v-1l-1-1h-6l-1-1h-6l-4-2-1-1h-2l-1-1v-1h-1v-1h1-1v-2h5-1v-1 1h-1l-1-1h-2v1h-1v1h-2v-1h-1v-1h-2 1v1h-1 1v1h-1v-1h-2v-1h-1l1-1v-1h-1v1h-1v-1h-1v1h-1l-1-2-1-1v-1 2l-1-1h-1v-2l-1-1v-1h1v-4h1v-1h1l1-1v1h1l-1-1v-2h-1v1l-2 1v1h-1v5h-2v-1 1h-1v1h2v2h-1l-2 2v1l1 1v1h-1l-2 3h-4l-1 1-1-1h-1v-1l-1-1v-1 1-3l-1-2h2v-1h1v-1h-1v-1h-1v-3h-1v1h-1l-1-1v-2h-1v-1h-1v-1h-1l-1-1h-1v-1h-6v-1h1l-1-1h1v-1l-1 1v-1h3l1-1h-2 6v1-1h2l1 1 1 1h1v-1h1l1-1 1-1v-1l1-1 1-1h2v-1h2v1h1v1h1v3-2l1-1v2-2h1v1h1v-1h1v1h1v1h-1v1h1v-3h1v1l1 1v-3h-1l1-1 1 1v-1h2-2v-1h1-1 1v-2 1h-3 1v-1h2v-1h-1 1v-1h-1l-1 1h-2v1h-2v-1 1h-9v1h-3l-1-1v1h-3v-1h-1v-1 1h-2l-1 1h-2v-1l-1-1-2-1h-1v-1h1v-1h1-1l-1 1v-1h-1v-1l-1-1h1-1v-1h1v-1h1v-1h-2v-2h1-2 1-1v1h-1v-2 1h-1v-1h-4v-1 1h-1v-1h-1 1-1v-1h-2 1v2h-2v-1h-4v-1h1v-2h1l1-1h1v-1h1v-4h1l-1-1 1-1h1l1-1h2v1h-1 1l1-1h3l1-1h1v-1h1v-1h2v-1l1-1h1l1-1h7l4 1h1v1h2v1h1l2 1 1 1 1 1h10l1 1h1v1h1v1h-2v3h1v1l1 1 1 2h1l-1 2v2h-1v1h-1v1h-1 1v6h1-1v2h1l-1 1h1v3h1v1h1v1h1v2l1 1v2l1 1 1-1v-1h-1v-4h1v-1h1v1h1v5l1 2v1h1l1-1v-1 5l1 1v1l1-1v1l1 1h5v1h1v-1h3v-2h1v-1h2v-1h1-1v-1h1l1-1h1v-2h1v-2h1v-1h1v-1h2v-1h1v-2l1-1v-2h1v-1h3l1 1v-1l1 1v-1l1 1v-1h1l1-1h1l1-1h4v-1l-1-1h1v-1h-1l-1-1v-1h1l3-2 2-1h1l5-2v-1h1l1 1 1 1 1 1h3l2 1 3 1h1v1h1l1 1 1 1h1v1h2l2 1 3 1 2 1h1v1h1l3 1 2 1 1 1 3-1h2l1 1 1 1h2v-1h-1 1l1 1h2l2 1h1v1l-1 1h1v-1 1h3v-1h1v1l1-1h1l1 1h2v1h2M599 360l-1-1h-1v-4h1v-1 1h2l1-1v-3h1v-1h2-1l1-1v2h3-2v-5h2l1 1v2l1-1v1l1 1v-1l1 1v-1h-1v-1h1-1v-1h-1v-1l1-1h2l1 1v-1h-1v-3h3v1h1v-3h1v3h1v1h8v-1h1v1h2v1l1-1h1v-1h1v-1h1v1h2v1h1v1h-1v1-1h1v-3h1l1-1h1v1h2-1v-1h-1v-5h-1 1v-1l1-1-1-1h-1v-1h-1v-1l-1-1h-4v1h-1l-1 1v-1h-1v-1h-1v-1 1-2l-1 1v-1h-2v-1h1v-1h-1 2v1h1v-2h1v1h1v1-1h1v1h-1v1h1v1-1 2h1v-4h-1v-1h1v1h1v1-2h1l1 1v2-1h1v-1 1h1v1h1v1l1 1v1h3v-2h1v1l1-1h-1v-1h1v1h1v1l1 1h1l-1 1 1 1 1 1v1h2v-1h1v1h-1 1v1-1h1v1h2v-1 2l1-1 1 1v-1h2v-1h3v1h-2v1l1 1h2v-1h1v1h1v-1 1h1v3-1h1v-1h1l1 1h1l2 1v-1h1v1-1h1l1-1h1v1h1v2h2l1 1h1v1h1v-1l1 1h1-1v-1h1l1 1 1-1h-2v-1h1v-1h3l1-1v1h1l1-1h-2l1-1h1v-1h2l1-1v-2h1v2l-1 1-1 1h-1 3-1v1h-1l-1 1-1 1v1l1 1v1-1h1v-1h1v-1h1v1-1h1l1-1v1h-1v1h-1 1v1h1v-1l1 1h-1v1h-1v1h1v1h4v-1l1-1v-1l1-1h-4v-1h1l1-1v-1h2v-1h1v-1 1h1l1-1v-1 2h-2l1 1v-1 1h1v2l1 1v1h2v-1h-1l1-1 1 1h1l1 1v1h1v1h-1l-2 2v1h-1v-1h1v-1h-1v2l-1 1v1h-1l-1 1h1v1h-1v-1h-1 1v1h-1l-1-1v2h1v1h2v1h-1v-1l-1 1v1h1v1l-1 1v-1l-1 1v1h-1M398 41h-1v1h1v-1M318 280h-2v1h2v-1M169 143l-1 1h-1 2v-1M170 126h-1 2-1M155 125v1h1v-1h-1M152 127v2-1h1v-1h-1M152 124h-1 1M145 128v1M146 126h-1v1h1v-1M141 134h2-2M248 158v1h1l-1-1M247 160h-1v1h1v-1M239 168h1v-1h-1v1M389 275h-2l-1 1v3h1l1-2 1-1v-1M481 280h-3l-1 1-1 1v1h1v-1l1-1h3v-1M549 273h-1v2l1-1v-1M557 275h-1l-1 1 1 1 1-1h1l-1-1M566 277h-1v-1h-2v1h3M579 276h-3l1 1h2v-1M614 266l-1 1v-1 1h-1l-1 1h2l-1-1h1v1l1-1v-1M611 265h1-1l-1-1v1-1h-1v1h3-1M615 263h-3v1h2l1-1M617 261h-1v1h-1 2v-1M622 251h-1v2l1-1h-1v-1h1M444 261h-1l-1-1h-1v1h3l1 1v-1h1-2M441 257h-1l-1-1h-1v1h1v1h2v-1M434 121v1h1v-1h-1M439 121h-1 1M490 171v1l1-1h-1M489 171v1-1M493 173v-1l-1 1h1v1-1M501 172h-1l1 1v-1M469 196h-1v1h1v-1M467 198h-1v1l1-1M491 231l-1-1v1h1v1h1l-1-1M487 227v1l1 1h1v-2h-2M496 239v-1h-1v-1h-1v1l1 1v1h1v-1M549 203h-2v1h2v-1M555 194l-1-1v1h-1l1 1h2l-1-1M558 192h-2v1h2v-1M561 188h-1 1-1v1h-1v1h2v-2h1-1M594 215h-1 1v-1 1M634 231v1h1v-1 1l-1-1M642 233v-2l-1 1v2h1v-1 1-1M668 243h-1v-1h-1v-2h-1v-1l-1 1v2l1-1v2-1l1 1 1 1v1h1v-1h1l-1-1"/>
    <path d="M672 246v-1h-2v-1h-2v2h2v2h1v-1h1v-1M674 249h-1v2h-1v1h1l1-1v-2M676 244v1h-1v2h1v-1l1-1v-1h-1M551 162h-1v1h1v-1M558 101h-1l1 1h1v-1h-1M565 99h-1v2h1v-2M640 197v-1h-1v1h1v1-1M741 252h-1l-1-1h1-1v1l1 1v1h1l1-1-1-1M460 38h-1l-1-1v1l1 1 1-1M442 46v1h1v-1h-1M653 330v1h-1v1-1h2-1v-1M88 30h1v-1l-1-2v1h-1 1-1v1l1 1M90 35v1h1v-2l-1 1M92 33v-2h-2v1h-2v-1 2h1v1h2v-1 1h1v-1M99 48h-2v3h2v-3M164 92v-1h-1v3h1v-2M160 116h-1l-1-1h-3v2h2v1h1l1-1h1v-1h1-1M403 61v-1h-1v1h-2 2v1h2v-1h1-2M407 64h-2 1v1h1v-1M349 49h-1v1l-1 1h2v-2M284 99v-6h-1v-1 7h1v1-1M13 45v-1l-1 1h1M12 43v1-1h-2 1v1h1v-1M16 40l-1 1v-1h-1v1h1v1h2v-1h-1v-1M35 99v-1l-1-1v1h-1v-2h-2l-1-2h-1 1v1h-1v-1 1-2h-2v-1h-1v-1h-1v-1h-2v1h-1v1h1l-1 1h1v2h2l1 1v-1h1v1h1l3 2h1v1l1 1v-1l1 1 1-1M38 103h-1v1h1v-1M46 105v-1h-1v1h1M49 103v-1h-4l2 1h1v1h1v1-2M70 111h-2v-1 1h-1 1l1 1h1v-1M68 142v-2l-1-1h-2 1v1l1 1v1l2 2v1h1-1l1-1-1-1v-1h-1"/>
    <path d="M69 147v-3l-1-1h-1v1l-1 1v3-1h-1v1h1l1 1v-1h2l-1-1h1M82 166l-1-1v-1h-2v-1h1l-1-1v-1h-1v-2l-1-1v-1h-1v-1h-1l1-1v1-1h-1v-1h-1v1h-3v3l-1 1h1v2l3 3v2l1 1 1 1h1l2 1h2v-3h-1 1v1l1 1v-2M91 177h-1v-1l-1-1v-1l-1-1h-2v2l1 1v1h2v1h2v1-2M97 184v-1h-1v-1h-1l-1-1-1-1v3h1v3h2v-1h1v-1M100 192v-1h2v-2h-1l-1-1v-1l-1-1h-1v-1l-1 1v3l1 1h1v2h1v1l-1-1v1h1v1h1v1l1-1-1-1-1-1M102 191v1h1-1v-1M134 229h-1l-1-1h-1v-1h-1l-1 1 2 2h1v1-1h1l1 1v-1h-1 1v-1M59 122v-1h-2v-1l-1-1h-1l-1-1v-2h-1l-1-1v-1h-2l-1-1v1l-1 1h-3v1-1 1h1l1 1 1 1v1h1v1l1 1v2h2v1l1 1h1v2h1v2h2v1l1-1v-2l1-1v-4M175 235h-2 1v1h1v-1M182 248h-2v1h-1v1h1v-1 1h1-1l1 1v-1h1v-2M209 188h-1v-1h-1v1h-1v1h2v1l1-1v-1M212 186h-1v1h1v1-1h1l-1-1"/>
    <path d="m207 182-2-1h-2l-2-1h-2v-1l-1-1-1-3v-5l-1-1v-1h-1v-3h-2v-1h-4v1h1v3h1v1h-1v-1l-1 1v-1h-1v-1h1v-1h-1v-1l-1-1v1h-2l-1 1h-1v2h1v1l-2 1-2 1v1h-1v1l1 1v-1h1l1 1v1l1-1h3l1-1v1h2l1 1h1v4h1v1h1v2l-1 1v1h1l1 2h2l3 2h1v1h2v1h1v1l1-1h1v1h1v-1h1-1l1-1h-2v-1h-1v-1l1-3 1-1h1v-1h1-1M217 187l1 1 1-1v-1h-1l-1 1M232 187v-2l-1-1h-1v-1h-1v-1h-1v1-1h-3v-1h-1v1h-2l-1 2 1 1h-1v2h-1v1h1v1h-1 1v4h1l2-1h1v-2h1v1l1 1v1h2v-1h1l1-1v-2l1-1v-1M156 143h-3l-1 1v1h5v-1h-1v-1M170 146v-1h-1l-1-1v1l-1 1v-1l-1 1v-1l-1 1v1l1 1v1l1 1v-1h2v-1h1v-1h1v-1h-1M176 143l-1-1v-1h-1v1h-1v-1h-1v-1 1l-1-1h1l-1-1h-1v-1 1h-1v2l-1 1v1h4l1-1v1h1l1 1h3l-2-1M172 138l-2-3h-1v1h1v1h1v1h1M169 138l-1-2h-1l1 1h-1 1v1l1 1v-1h-1 1M167 133h-1l1 1h1v-1h-1M165 127h1-1v-1h-1v1h1M164 127l1 1v-1h-1M164 124h-1v-1h-1v1h1v1l1 1 1-1v-1h-1M174 122v1h1v-1h-1M172 121l-1-1h-1l1-1h-1v-1 1h-4v1h-1l-1 1h1v1h2l1-1v1h1-1v1h1v1h-1 1v1h2v-1l1-1-1-1h1v-1M163 120v-1h-1v1l-1-1v1h-1v1h-1l1 1h2v-1h1v-1M160 122h-2v1h2v-1M158 124v1h1v1h1l-1-1-1-1M157 125v-1h-1v1h1v1h1v-1h-1M153 125h-1l-1-1v1h1l1 1v-1"/>
    <path d="M152 126v-1h-1v-1h-1v3l1 1h1v-2M151 122v-1h-1v-1h-1v1l1 1h1M149 128h-1v-1h-1v1l-1 1v1h3v-2M146 123l-1-1v-1h-2l-1-1h-1l-1-1-1 1v1h-1v1h4v1h1v1l2 1h2v-1l-1-1"/>
    <path d="M145 126v-1h-1l-2-2h-1l-1-1h-3l1-1h-1l-1-1h-1v1l1 2h-1l-1 1 1 1 1 1h1l2-1 1 1h3l1 1h1v-1M136 116v-1l-1-1-1-1h-4l-1-1h-2l1 1v1h1v1h4v1l1 1 1 1h1v-2"/>
    <path d="m135 118-2-1v-1l-1-1h-1v6l1 1 1 1h2v-5M123 105l-1-1-1-1v1h-1v1h-1v-1h-1l-1 1v3h1v1l1 1h3v-1h1v-4M191 89h-1v-1h-1v4l1-1v-1l1 1v-2h1-1M198 93v-1h-1 1v1M199 86l-1-1h-1l1 1v1h1v-1M199 83h-1v2h1l-1-1h1v-1M228 59h-1v1h-1v1h1v-1h1v-1M234 74h-1 1v-2l-1-1-1-1v-2h-1l-1 1-1 1v1h-1l-1 1h1v2h1v1h3v2-1h-2l-1 1 1 1h2l1-1v-1l1-1v-1M224 89v-1l-1 1h1M242 89h-1v1l-1 1h2v-2M246 97h-1v-1h-1v1h1-1 2M220 122v1l1-1h-1M257 157v-1l-1-1v1h-1l-1-1h-1v1-1h-1v3l-1 2h1v1h1v-1h1l1-1h1l1-1v-1M244 165h-3v2h1l1-1h1v-1M359 219v-1l-1 1h-1l1 1 1-1M366 201v-5l-1-1 1-1v-1h-1l-1 1h-1v2l-1 1v2l-1 1v1h1v3l1 1h-1v1h1v1-1h1v-1h2v-3h1v-1h-1M368 196h-1v3l1 1v-5 1M405 101h-1 1l-1-1v2h1v-1M386 83h-1v1h2v-1h-1M392 75l-1-1h-1l1 1h1M388 81h-1v3h1l1 1v-4h-1M387 81h-1v-1h-1l-1-1h-3v1h1l1 1h4M393 81v-1h-1v-1h-1v1h1v1h1M390 70h-2v2h2v-2M392 69h-1v-1h-2l1 2h1l1 1v1h1v-3h-1M244 269v-1h-2l-1-1v1h2l1 1h1-1M306 235h-1l-1 1v1h1v-1 1h1l1-1v-1h-1M354 254l-2-1h-4l1 1h-1v1h1v1h1-1v-1h1v1h1v-1h-1l1-1v1h1v-1 1h2v-1M354 284h-1l-1 1h1l1 1h1v-2h-1M355 277l-1-1h-1l-3-2h-3l-2 1-1 1h-2l-3-1h-1v-1l-1 1-1-1h-1v1l1 1 1 2v1h4l2 1 1 1 1 1h1v1l1 1 1 1h-1v1h-1v1h2v-2 1-1h1v-1l1-1h1l2-1v-1h2v-1h1v-2h-1v-1M372 277h-3l-1-1h-1l-1 1-2 1-1 1h-1v2l1 1v2h-1v1h1-2v1h-1v-1h-1v1l1 1h1v1h1v-1h1-1v1h1v-1h1v1h4v1-2h1v1h2v-1h-1v-1l1-1v-2h1v-1h1v-2l1-1h-1v-1l-1-1M415 283l-1-1v1h-1v1l-1-1v-3l-1-1v-1h-1v-1h-1l-1 1h-1v3h-1v1h-1l1-1v-3l-1-1h-3l-1 1-1 1-1-1-1-1h-1v-2h-1v-1h-3l-2 1h-1v2h1v1l1 1h1l1 1 1 1v-1h1v1h1l1 1h1v2h-1l-1-1-1 1h-1l-1 1h-1v-1l-1 1h-1v-2l-1-1h-1l-1-1v-1 1h-1v-2 1h-2v-1 2l-1-1h-1v-1h-3l-1 1h-1v1h-3v1l-1 2v1h1v1l-1 1v3h4v1h3v-1h6v-1l2-1h4l2-1h2l2-1v-1h1v-1h1v-1l1-1v3h-1v1l1 1 4-1h2v1h2v-1h-3l-1-1h2v-1l1 1v-1h1v1h4v-2h1-1 1M413 275h-1v2h1v-1h1l-1-1M441 305l-1-1h-1l-1-2-2-1v-1h-2v1h-1v-1h-1v-2l-1-1h-2l-1-2h-1v-1l-2 2h-2l-1-1h-2v1l-1-1h-1v1l-2-1-1 1h-3v1h-1v1h-1v1h1v1h1v1h2v1h4v1-1h4v1h1v1h1l1 1h2v1h1v1l1 1v1h1l1 1h4v1h1v-1h4v-1l1-1h1v-2l-1-1M421 281h-2v-1h-1v5h1v-2l1-1v1h1v-2M423 283v1l-1-1v2h-1l1 1v-1 1h1v-2h1v-1h-1M479 277h-1v-2h-1v-1h-2l-1 1v2l1-1h2l-1 1-1 1-1 1h-3v1l-1 1h-1 1v1l-1 1h-4l-1-1h-1v-1h-1v-1h-2v1h-5v-1 2h-1l-1 1v-1h-2l-1-1-1-1h-3v-1h-1v-1h-6v-1h-4v-1 1h-2l-2 1-1 1v-1 1h-2v1h-2v1l-1 1v4h1v1h1v-1h3v-1h1v1h1l1 1 1-1h4l1 1h2v-1h1v1l1 1h7l1-1v-1h3l1 1v1h1v-1h3l3-1 1-1h7v-1h2v-1h3l1-1-1-1v-1h2l-1-1h1v-1h2v-1"/>
    <path d="M484 277h-4l-1 1-1 1h6v-2"/>
    <path d="M494 276h-4v1h-1v-1 2h-1v1h-1v-1l1-1h-4v1h2v1h-2l-1 1-1 1v1h3v1-1h1v-1l1 1h1v-2h1v-1 1h1v-1h1v-1l1-1h2v-1M500 276h-1l-1 1-1 1v1h-1v-1h-1l-1 1v1h-1 2l1 1v1h1l1-1v-2h1l1-1v-2M514 276l-1-1h-7v1h-1v-1h-3v1h-1v1h2v-1h1v1h-1l-1 1-1 1-1 1h5v-1h9v-3M460 313h-1v1l-3 1v1h4l1-1 1-1-1-1h-1M485 316h-1v-1h1l-1-1h1v-1h-1v1l-1 1h-1v1h-1v1h-1l-1 1h-2l-1 1h-1v2h3-1 1l2-1h2v-2h1l1-1h1v-1M486 309v-1h-1v1l-1 1-1 1v1h1v-1l1 1v-2h1v-1h1-1"/>
    <path d="M503 292h-1l-1 1h-3v1h-1l-1 1h-2v1h-1v2h-2v1h-1v1h-1v5h-1v2h1v-1h1v1h1v1h-2v1h-2v1h-1v2h6l2-1h1l1-1 1-1h5l1-1 1-1v-1h1l1-1 1-1h1l1-2v-1l2-1v-1l1-1h1v-1h1l1-1h1v-1l1-1h1l3-1 1-1 1 1 1-1h2v-1l1 1v-1l3-2h5l1-1h1v-1l1-1h1l1-1h3l1-1h1l2-1 1-1 1-1 1-1v-1h-1l-1-1v1h-2l-1-1h-1l-2 1-1 1h-2l-1 1h-1v-1h-4v1h-9l-1 1-1-1v1h-4l-1 1h-3l-1 1v2h-1v1l-1 1-1 1h-1v1h-2l-1 1-1 1h-2M521 276l-1 1v1h2v-3l-1 1M542 268v-1h-2l-1-1v-1h-1l-1 1h-1l-1 1h-1v1h-1v-1h-1v1h-3v-1h-2v1h-1v2h-1v2h-1v1h1l1-1h1v-1h7v1h2l1-1 1-1v-1h1l1-1v1l1-1h1v1-1M553 265h-1v-1h-1v3h1v-1h1v-1M563 275h-2l-2-1h-1v2h3l1 1 1-1h1v-1h-1M573 258v-1h-2v1h-1 1v1h1v1l1-1v-1M592 271v-1h-1v-1h-3v2l2 2 1 1v-1l1-1h1v-1h-1M624 260v-2h-1v1-1h-2v2h-1v1h-1l-1 1v1h-1l-1 1v1l-1 1v2h1-2v-1 3h-1v1h1v2h2v-1h1v1l1-1h-1l1-1v-1h1v-1h1v-1h1v-1h1v-1h1v-3h1-1v-3h1M614 275h-1v-1h-1l-1 1h-1v2h-1l-1 1v1h1v-1h1v-1h2l1-1 1-1h1-1M628 259v-1h-4v1h3v1h1v-1M437 238v-2h-1v-1 1l-1 1v2l1 2v1h-1v1l1 1v3-2h1v-7M517 113l-1 2h-2l1 1 1-1v-1h1v-1M519 99h-1v1h1v-1M519 92h-1v1h-1 1v2h1v-1h-1v-1h1v-1M522 81v-2h-1v-1l-1-1h-1v1l1 1v2l1 1h2v-1h-1M541 74v2h2v-1h-1v-1h-1M540 73l-1-2v2h1v2-1h1v-1h-1"/>
    <path d="M543 66v-2h-1v-1h-1v1l-1 1v2h1v1h1l-1 2-1 1v1h2v-3h1l1-2-1-1M459 146h-3v1l-1 1h1l1-1h3v-1h-1M462 144h-2v1-1h-1v2h3v-2M454 142h1l1-1h-2v1M468 143h-2v-1h-1v1h2v1l1 1v-1h-1l1-1M465 143h-1l1-1h-1v1h1v1-1M480 168v1h-1v2h1v-1h1v-1l-1-1M487 160h-2v-1h-1v1l-1 1v1h-1v-1h-1v-1h1v-1l-1-1v1h-1v-1h-1l-1 1h-2l-1 1v3l1 2h1l1-1 1-1v-1l1-1h1v3l-1 1v1h2v-3h2v1h2l1-1v-3M492 172v-1l-1-1v2h2-1M517 169h-1v-1h1-2v1-2h-2v1h-2v-1h-4l-1-1h-2v1-1h-1l-1 1h-1v2h-1v2l1 1h1v1l1-1h4l1-1h6v-1h3v-1M534 169h-17v1h2v2-1h10l2-1h3v-1M529 179v-1l-1-3v-3h-1l-1 1v2h1v2l1 2v1h2v-1h-1M481 199v-1h-1v1h-1 1v1-1h1M482 206h-3v-1h-1v1h-1v1l1 1v1h1l1 1 1-1 1-1v-2M463 226l-1-1h-1v-1h-1v-1 1h-1v2h-1v2l1 1h1v1h2v-4M474 221v-5h-2l-1 1-1 1h-2v1h-1v2h1v3h-1v3l-1 1v1h2v-1h1-1v1h2v-2 1h1l-1 1 1 1v-1 1-1h1v-3h-1 1v-3l2-1 1-1h-1"/>
    <path d="M481 226h-1v-1h-2v1h-1v-1l1-1v-1l-1-1h1v-2l1-1v-1l1 1v-1h1v2h1v-3h-1v-1h1-1v-2l-1-1h-1l1-1h-2l-1 1v1h-1v6h-1v2l-1 1h1v1h-1v2h1l-1 1h-1v1h-1v2l-1 1 1 3h1v-1h1v1-1l1 1 1-1v-1l1-1h-1v-1l2-1h1v1-1h2v-1h1v-1h-1v-1M549 197v-2h-3v-2 1h1v-2h-2v-1h-2v-1h-8l-2 1-1 1h-1v-1h-2v1l-1 1 1 2v2h2v2h2v1h1v1h2l3 2h2v-1h3l1-1 2-1h2v-3M610 199v-1h-1v-2h-3v-3l-1-1v-1h-2l-1-2h-7l-1-1h-1v-1 1h-1l-1-1-2-1h-2v-1h-1l-1 1h-1v1h-1l-1 1h-2v-1h-1 1l-1-1h-2v1h-6v-1h-2v1h-5v1h-1v1h1-1v1h-1l-1 1h-1v1h-1l1 1v2h1v1l-1 1v1h1v-3h1l1-1v-3l1-1h1v3h1l2 3h1v1h1l1-1h2v-1l2-1v-1h1v-1l1 1h1l-1 1v1h3l2 1h3l1 1h1l1-1-1-1v-1h1l5 1h1v1h1v1h1l1 1 3 1 1 1h2v1h2v1h1l1 1h1v1h1v-4h1v-1"/>
    <path d="m567 198-1-1v1l-2 1h-3v1l-1 1v1h2v-1h1l1-1h1l-1 1v1h-1 1v-1h2v-2l1 1v-2M571 198h-3v2h1l1-1h1v-1M574 198l-1-1v1h-1v-1h-1v1l1 1v1-1h2v-1M575 200h-1v1h1v-1M616 206l-1-1v1h1v1-1M618 208l-1-1v1h1M619 206v-1h-1v2h1v-1M622 213l1 2v-2h-1M624 217v2-2M642 236v-1h-1v-2h-1v-1 1h-1v1h1-1 1v4-1l1 1h1v-2M648 228v-1h-1v2h-1v4h-1l-1 1v2l-1 3 1-2h1l-1-1 1-1v-1h1v-1h1v-1l1-1v-3M670 249v-2h-1v-1h-2v-2h-1v-1h-2v-1 5h1v1-1h-1l-1 3v3h1v1h1v1-1h2l1-1 1-2v-1h1v-1h1-1M675 242h-1l1-1v-1h-1l-1-1v-1h-1 1l1 1v-2 1h1v-1h-1v-3h1l-1-1v-1h-1v-1h1-1v-1h-3v2-1 1-1l-1 2h-1v1l-1 1v-1h-2v1h2v1h1v-1 2h-1v3h1-1v3h1l1 1h2v1h3v-2h1-1v-1h1M564 166v-1h-2v-1l-2-1h-2v-1h-1v-1h-2l-1 1v1h-2v2l-1 1 1 1 1 1h3v-1h5l2 1v-1h1v-1M557 159h-4v1h4v-1M560 152v-1h-2v-1l-1 1h-1v-1h-1v-1l1-2v-1h-1v-2h-2v2h-1v-1h-1v-1l-1 1v3h1v1h1l1 1-1 1v1l1 1 1-1h2v1h1v1h1v-1h2v-1M550 151v-1h-1v-1h-1v3h2v-1M549 147v-1h1v-1h-1v-1h1-1v-1h-1l-1 1v4h2v-1M551 126v-1l-1-1v2h1M551 128v1l1-1h1l-1-1v-1h-1v2M553 139l-1-2v-1 4h1v-1M552 133h-1v1h1v-1M573 97h-1v-2h-1l-1 1h-1v1h-1l-1 1-1 1v1l-1 1h1v4h1-1v1l1-1h3v-1h1v-1l1-2v-1l1-1v-2"/>
    <path d="M556 142v-3l1-1-1-1v-1l1-2v-1h-2v-1h-1v-5l1-1v-2h-2v-1h1l-1-1v-1h-1v1-4l1-1v-1l1-1v-4h1-1v-1h1v-2h1v-1l1-1 1-1 1-1 1-1 1-1 1 1v-1h1v1l-1 1h-1v2h-1v1h-1v1l1 1h1l1 1v7h-1v1l-1 1v1h-1l-1 1-2 1-1 1 1 1 1 1h1v1h1v-1h1v-1l1-1v-1l1-1v-1h3v-2h-2 1v-1l1-1 1-1h1v-1h1l1-1h5l-1 1v1h1v3l-1 1 1 2h-2l-1 1v1h-2v1h-2v1h-2v1l1 1 1 1h2v1h3v1h1v3l1 1h2v1h1v1l-1-1-3-1h-2l-1-1-1-1h-1l-1 1h-1v-1h-1l-1-1h-4v9l1 1v2l1 1v2l1 1v1h1l1 3 1 1 1 1h1v1h1-3v-2h-1l-2-1h-1v-1l-1-2-1-1v-1l-1-1-1-1h-1v-1h-1M587 141l-1-1-2-2h-1l1 1 1 1 1 1 1 1v1h1v-1l-1-1M617 143v-1l-1-1h-1l-1-1h-3l-2-1h-1v1h-1v-1 1h-5v1-1h-1v1-1 1h-1v1h1v-1 1l1-1v1h-3l1 1h1v1l1-1v1h1v-1h1v3l1-1v-1h2l-1 1 1 1h3l1-1-1-1h-3v-1l-1-1v-1l-1-1h2v1-1 1l1 1v1h2v1h1v1h2v-1h1v1h3v-1h1-1v-1M606 146h-1l-1 1v-1l-1 1v1h1v-1h1v1h1v-1h1v-1h-1M610 152h-2 1v1l-1-1v1h-2v-1l-1 1v-1l-1 1h-1v-1 1-1 1l-1 1h7v-1h1v-1h1-1M613 156v-2h-2v1-1h-3l-2 1 1 1v3h1v1h1v1h2v1l1-1v-2l1-2v-1M594 158h-1l-2 1h2l-1 1h1v-1h1v-1M602 171v-2l-1-1v-1h-1l-1 1h-4l-1 1h-1l-2 1h-1l1 1h1v1h3v1h5v-1h1v-1 2l1-1-1-1h1M622 183h-1 2-1M655 210l-1-1h-2v-1h-1v1h1l1 1h2v1h1-1v-1M744 265v-1l-1-1-1-1h-4l-3 1-2 1-3 1-1 1v1l-1 1-1 1v1l-1 2-1 1v1l-1 1-1 4v1l2-1h7l2 1 1-1h2v-1h1l1-1 1-1v-1h2v-1h2v-3l1-1v-2l1-1v-1h1l-1-1h-2"/>
    <path d="M744 278h-1v-2l-1-1-1 1h-1v1h-1l-1 1v1h6v-1M666 168l-1 2v1-1h1l-1-1h1v-1M668 172v1l-1 1 1 1 1-1v-2h-1M672 179v-2h-1v3h1v-1M679 156h-1v1h-1 1v-2h-2v1h-1l1 1v1h2l1-1v-1M683 164h-3 4-1M710 168h-9v-1h-4l-1-1v1l-1-1h-8l-1-1v1h1v1h4v1h3v1h2v1h3v1h1v-1h2l1 1h2l-1-1h4v-1h2v-1M702 157h-2v-1l-1 1-1-1v-1h-1v-1l-1-1-1-1-1-1h-4v-1l-1 1v-1h-3l-1-1v2l1 1h1l2 2h1v-1h2v3h1l-1 1 1 1v1h2v-1l1 1h4l1-1h1v-1M466 28h-1v-1h-2v-1h-1l-1 1h-2l-1 1v1h1v1l2 1v1h1l1-1h2v-2h2v-1h-1M438 32h-1v2h-1v1h1l1-1v-2M432 51v-1h-2v1h-2v1h-1l-1 1h-1v2-1h3v-1h2v-1h1v1h1v-2M621 330v-1h-1v-1h-1v-1h-2v-1h-1l-1 1v1l1 1h-1v-1l-1-1-1 1-1 1v1-1l-1-1h-1l-1 1h-2v1l-1-1v-1 1h-2l1-1v-1h-1v1-1l-2-1v-1 1h-1v1l1 1v3l1 1v2h2v1h1l1 1h-1 2l1 1h1v1h1l2-1 2-1v-1h2v-1l1-1v-1 1h2v-1 1l-1-1h1v-1h1v-1"/>
    <path d="M604 335v-1h-1v-2h-1v-2l-1-1v-1h-1l-1 1v1h-1v4h-2v2-1l-1 1h1v1h2l1-1h3l1 1h2v-1h1l-1-1h-1M702 331v1l-1 1h-1v-1 1h-1v1h-1 2v-1h2v-1h1v-2 1h-1M708 323v1h-1v2h-1v1l-1 1v1l-1 1 2-1v-1l1-1v-1h1v-3M637 325v1l1 1v1l1 1v-4h-1 1v-1h-1 1l-1-1v-1h1-1v1h-1v1-1h-1l1 1v1M328 254h-20v2h-2v2-1 2h2l5 1v-2h1v1h-1 1v1l1-1v1h5v-1h1v-1h5v-1h-1 2v-1h3v-1h-1l-1-1M334 257h-1v2h2v-1l-1-1M338 258h-2v1h2v-1M457 277l-1 1 1 1v-2M467 280v1h1v-1h-1M458 262h-1v1h1l1-1-1-1v1M448 42v-1h-1v1h2-1M451 39h-1l-1-1v1h-1v-1l-1-1h-2v1h-2v3h1v-1h2v1-1h3v1h1v-1h2v-1h-1M419 58v-1 4l1-1v-1l-1-1M464 145l-1 1v-1 1l-1-1v-1l1-1v1l1 1M484 167v1l-1 1v-1l1-1M189 313v1h-2v1h2v1-3M591 214v1-1M518 104v-1h-1v1h1v-1 1M535 117v-1h-1v1h1M614 88v1-1h1-1M667 126v1h1v-1h-1M590 265v1-1h-1l1 1M596 269h-1 1M595 245h1l-1-1v1M586 252h1v-1l-1 1M580 256h1v-1h-1v1M628 228v1h1v-1h-1M443 43v1-1h1-1M442 44h-1 2-1M519 48h-1l-1 1h2v-1M425 54v-1l-1 1v1-1h1M425 58v-1h1-2 1v1M514 109v-1 2-1M425 58v1h1l-1-1M115 88h-1 1M173 126v1-1M593 146h-1v1h1l1-1h-1M488 166l-1-1h1l-1-1h-1v3l1 1v-1 1h1v-2M655 180h-1v-1l-1 1h1v1h1v-1M674 248v-1h-2l1 1v1l1-1M359 258v1l-1-1h-1v1h2v-1M116 88h-1v1h1v-1M172 125h-1 1M547 59v1-1M568 155h-1v1h2-1v-1M665 235v1h1v-1h-1M268 236v1h1v-1h-1M455 316h-1v1h1v-1M625 89v1-1M384 28v-1h1v-1h1v2h-2zM379 20v-3h1v-1h3v1l-1 1v1h-2v1h-1zM376 19h-1l1-2h1l1-1v1h-1l1 1h-2v1zM635 342l-1-1h1v1z"/>
    <path d="M636 323h1v1-1h1v-1h1l-1 1 1 1h-1 1v1h-1 1v4l-1-1v-1l-1-1v-2l-1-1zM637 334v-1h1v1h1v1h-1l-1-1zM651 334v-1h2-1v1h-1zM652 332v-1h1v-1 1h1-2v1zM677 340h1-1zM676 341v-1h1v1h1-2zM680 338h-1 2-1zM601 327v-1h1v-1 1l2 1v1-1h1v1l-1 1h2v-1 1l1 1v-1h2l1-1h1l1 1v1-1l1-1h1v-1h1v1l1 1-1-1h1-1v-1l1-1h1v1h2v1h1v1h1v2h-1v1h-1l1 1v-1 1h-2v-1 1l-1 1v1h-2v1l-2 1-2 1h-1v-1h-1l-1-1h-2v-1h-1v-1h-2v-2l-1-1v-3l-1-1z"/>
    <path d="m595 336 1-1v1-2h2v-4h1v-1l1-1h1v1l1 1v2h1v2h1v1-1l1 1h1v1h-1v1h-2l-1-1h-3l-1 1h-1l-1-1h-1zM699 334h-1 1v-1h1v-1 1h1l1-1v-1h1v-1 2h-1v1h-2v1h-1zM695 335v-1h1v1h-1zM704 330v-1h1v-1l1-1v-1h1v-2h1v-1 3h-1v1l-1 1v1l-2 1zM698 340h1v-1 1h1v-1h1l-1 1h-1v1h-1v-1zM704 336l-1 1v1-2h1zM709 342v-1 1zM705 335h1l-1 1h-1 1v-1zM535 0v1h-1v1h1l1-1v3h-1v1l1 1h-1v2l1 1v1h2v7h1l-1 1v1h-1v1h-1v2h-2l-1 1v1h1v2l-1-1v-1l-1-1v1h-1v1h1v1h1l-1 1v7h-1v-3h-1v-6l-1-1-1-1v-2h-1v-1l-1-1v-3h-1l-1 1h-1v1h-1l1 1v1h-1v1h-1l-1 1v1l-1 1v1h-1v4h1v-1 1l1 1h1l1 1v3h1v6l-2 1-1 2-1 2-1 1h-1v-2h-1v-1h-1v-3l1-1v-2h-2v1l-1 1v2h-2l-2-1h-2l-1-1h-1v-1h-1l-2-1-1-1h-2v-1h-1v-1l-2-1v-3h-1 1v-2l-1-2h1l-1-1v1-1h-1v-2l1-1v-2h1v-1h1l1-1v-1h1v-2h-2v-1l-1-1v-1l-1-1h-1l-1-1h-2l-1-1V8h-4v3l-1 1h-1v1h1v1h1v1l-1 1v-1h-1l-1-1v-1h-1v1h-1l-1-1v-1h1v-1h-1v-1l-1 1v2h-1v1h-1v-1h-1v1h-1V9h-4l-1 1v1l-1 1v2-1h-1v1h-1v1h1v1h-1v1h-1v3h-1v1l-1 2-1 1-1-1h-1l-1-1v-4l2-1v-3h1v-1l1-1h-1V9l1-1 1-1V6h1V5h1l2-1h2l1-1h1V2v1h4l1-1V1h-1V0m16 0v3l-2 1h-1v1h-1v1h1l1-1 2-2h1V2h5V0M81 29v1h-1v-1h1zM68 0v2l-1 1V2v1l-1-1h-1V0m6 0v1-1h1m0 0v1l1 1v3h1V4v1h1V4h1v2h1v1h1V6v2h-1l1 1v1h1V9l1 1h1v2h1v1l1 1v3h2v-1h1v1h1v-1 1h-1v2h1v1l1-1v1h2l-1 1-1 1h1-1l1 1h-1v1h1l1 1h1v1h1v1h1v2h1v1h2-1v1h1v2l1 1 1 1v1l1 1v1h1v11l1 1v3h-1v3h1v1h1v1h1v1h1v2h1l-1 1v-1 2h1-1v3h-1v1h1v3l1-1v1h2v2h1v-1 1h-2l-1 1v1h1v1h2-1v1h2v1h1v1l1 1h1v2l1 1 1 1h1v1l1 1v2l1 1v1h-1l-1 1v1h1-1l1 1h2v2h1l1 1h2v1h2v1l1 1v1h2l1 1 1 1 1 1 3 1 2 1h1v1h1-1 1l1 2 1 1h3v1l1 1h2l2 2 2 1h1l1 1v2l1 1 1 1v-2h1l1-1h2l1-1 1 1h2v-2l-1-1v-1 1h1v2h1v-1h1v1h-1v2h3v-1h1v-1h-1v-3h-1v-2l-1-1v-2h-1v-1l-1-1v-1l-1-1v-2l-1-1-1-1v-1l-1-1v-1h-1l-1-1-2-2-1-1-1-1v-1l1-4h-1v-3l1-2h-1 1l-1-1-1-1v-4l1-1v-5h1v-3l-1-1h1v-1l-1-3v-2l-1-2-2-3v-1l-2-3-2-2v-1h-2l-3-3h-1v-1h-1l-1-1v-1l-2-4h-1l-1-1h-3l-1-1-2-2-2-1-1-1-1-2-2-3-1-1h-1l-1-1h-2 1v1h-6l-1-1h-2v-1l-3-3v-1 1l-1 1h-1v-1h-2v-1h1-1v-2h-2v-2h-1v-2h-1v-2l1-1h2v3h-1v1h1l1-1v1h1v5h2v1l1-1h-1l-1-2-1-2-1-6-1-5-1-3M70 136h3l1 1h-1v1l-2-1v1l-1-1h-1v-1h1M67 143h1v1l1 1h-1l1 1v1h-1l1 1h-2v1-1l-2-1h1v-2l1-1v-1"/>
    <path d="M67 139v1h1v2h1v1h1v1h-1v1l-1-1-1-2-1-1v-1 1-2h-1 2M357 220zM357 218zM335 233h1v1h-1v-1M335 231h1v1-1h-1v1-1M339 225v1h-1v-1h1"/>
  </g>
  <g fill="none">
    <g stroke-linecap="round">
      <path stroke="#A08070" stroke-dasharray="4,2,1,2" d="m654 151-2 2v3c1 0 0 0 0 0s1 4 0 3-3 1-3 1-2 2-4 1-2-1-1 1 0 2-1 3l-2 5-1 3-1 3-31 10m65-1c2-7-4-52-16-62m16 62h-1 0v3h1v1l1 1v2h1v1l1 1v5h1v1h1l1 1h1l1 1v3h-1 0l-1 1h-1 0-1l1 1v0h-1l-1 1h0v1h-2"/>
      <path stroke="#A08070" stroke-dasharray="4,2,1,2" d="M543 98s1-3 5-3 8 0 13-2c4-2 16-7 20 0 5 7 9 22 10 31 0 10 1 20-2 24s-12 29-29 32c-17 2-24 5-31 5l-24-6s-9-1-9-12c0-12 12-26 12-26s7-16 11-19l10-11c2-4 13-13 13-13m-56 36s2 7 7 9c6 2 14 2 14 2m66 28s29 7 37 14c7 7 11 16 21 22s34 6 39 11c6 5 15 21 15 21M480 123v1h1l1 1h0v2h1l1 1 1 1h1v2h1l-1 1h0v2m-21-12h0-1l-2 1h-3 0l-2 1h-2 0-1l-1 1h0-1 0-1 0-1 0l-1 1h0v1h0-1 0-1l1 1v1h2v2h0m-29 22v5h0v1h-1v1h0l-1 1v0h1l2 1h0v1h1v3h0l1 1h1v1h0v1h0v2h0v1h1m41 21-1-1-1-1h0-1 0-2l-4-2h0-3m-29-17-1 1h0v1h-1 0l-2 1v1h0v1h0v1h1v1h0v1h1v1h0v2h0v1h0v0h0l-1 1h-1 0-1 0-1 0v2h0v1l1 2 1 1h0v0h0-1v1h-1 0-1 0-1 0v1h0l1 1h0v1h0v2m36-8v-1l3-2v-1h0v-1h0v-1h-1 0l-2-1v-1h-1l-1-2h0-1l-1-1h0l-10-2h0l-3-2v-1h-1l-2-3h0-1 0v1h0-1 0l-2-1h-2 0l-2 1h-1v1m29 17h-2 0-1l-1-1-2-1h0l-3-1h0-1"/>
      <path stroke="#A08070" stroke-dasharray="4,2,1,2" d="m364 262-1 3-5 18-10 19m70-32s0 8-2 13c-2 6-2 4-6 10-5 6-4 5-6 11-2 7 1 16 1 16m120-72-28-2c-10-1-12 2-19 5s-13 9-17 14c-4 4-26 1-37 0m97-82v7c1 10 5 15 8 21 3 5 0 18-1 22l-3 15-6 15-3 15m-153-24-2 4c0 2-1 2-3 3l-7 1-10 3-3 2-2 5-1 3v3l2 4 2 3-1 8-2 5"/>
      <path stroke="#000" d="M510 289s-2-1-2-3c1-2 0-3 3-4 3-2 5-1 5-4l1-5h5l3 2c7 3 14-1 21 1 4 0 8 2 13 7"/>
      <path stroke="#A08070" stroke-dasharray="4,2,1,2" d="M331 216c6 2 11 6 15 11l4 6m-8-56v0h1l2-1h2l1-1 2-2v-1 0h0v-1h0v-1h0v-1h0v-1l1-4v-1h2l1-1h2v1m-14 14v1h1v1h0v1h0l-1 1v0l-1 1h0v1h0v1h0-1v1h0-1 0v1h0-1 0-1 0v1h-1 0v2l-3 7m-56-9h1v-1h0v-1h2v-1h0v0-1h0v-3h0v-1l-2-4v-1h-1v-2 0l1-2h0v-1h0v-1h0v0-1 0h0-1 0-1v-1h0v0h0l1-1h0l1-1h1v1h1v-1h1v-1h1v-1h1v-1h1v-1h1l1-1h1l1-1h-1 0v-1h0l1-1h0l2-1 1-1h1l2-1 1-1h1v-1h4v1h1l1-1h2l3-1v-1h2l1-1h2l1-1h1v1h1l1-1v-1h0v-1h0-1 0v0h0l1-1v-1h1l1-1h0v-1l1-1h0v0-2h0l-1-1h0l-1-1h0v-1h-1 1l1-1h0l1 1h1v-1h2v-2h0v-1h1v-1h1m47 49h0l-2-1h-1l-4-1h-3 0-1 0v1h0-1 0v0l-1-1v-4h0-1 0v-1h0v-1h0v-2l-1-2h0v-1h0-1 0v-1h0v-1h-1 0l1-1h1m-32-33v-1h4v-1h3l1 1h7v-1h1l1-1h4v1h0v1h1v1h0-1v1h0l-1 2h0v1h0v1h0v1h0v1h1v1l-1 1v2h0v0h0v1h0l1-1h1v-1l2-1h2v0h0v2h0l-1 1h0v3h0v1h0l1 1v1l1 1h0v3h0l1 1h0v1h0l1 1h2v1h1v1h1v1h0v-1h1v2h0v2l-1 1v1h-1 0m-25-48h0v2h0v1h0v1h0-1 0v1l-2 1h0-1v1h-1 0l-1 1v1h2v1h0v1h-1v1h0v1h-1 0l-1 1h0v1m90-32-12-2a48 48 0 0 0-7 2l-2 1h0-1l-1 1h-1l-1-1-1-2h-2l-1-1h-6l-1 1-2 1-1 1h-1l-1-2-1 1-1 1v-1h-1v2l-1 1h-1l-2 1 1 1v1h-2v1l-1 2v2l-1 2-1 1v1l-3 2v1l-2 1-1 1h-1l-3 1-1 2-1 1h-3v-1l-2-1-1-1h-2v1l-2-2v-1l-1-1h-1l-1-2M289 251v1l-1 1h0v2h0v2h0v1h0l-1 1h0v1h-1 0-1 0v1h0v0h-2 0v-1h0-1 0-1 0v2h0v4h0v1h0v0h0v1h1v1h1v1h0l-1 1v1h0-1 0-1l-1 1-1 1h0-1v1h0v1h0v1m-2-1v-1h0-1 0v-4h0v-1h0-1 0-1 0-1 0-1l-1-1h0v-1l-1-3h0v1l-2 1h0l-1 1h0v-1h0-2 0v1h0v1l-1 1h0v1m-20-18v0l-1 1v1h0v1h0v1h0-1 0v1h0-1 0-1 0-1 0v1h0v2h0l1 1h1v1h0v1l1 1v1h0v0h0l1 1m-34-23v1h0l-1 1h-2v-1h-1 0-1v1-1h0-1 0v1h0v1h0v4h0l1 1h1-1v1l-1 1v1h0v1h0m6-12h0v1h2v1l1-1h0v-1h0v-1h1v-2h-1m-4-1h0v1h-1l1 2h0v1h1M35 115l27-13m18 33-14 20m28 44s6 1 9-2c2-3 3-2 4-6l1-7 3-4m43 41-9 9-11 8m42 8 12-6c2-2 4-1 4-3 1-2 0-4 2-6l2-3m-18-60c-1-1 3-3 7-5s7-5 13-6l19-2c5 1 13 3 16 6s4 7 3 11c-2 4 1 24-10 26s-13 2-20-2l-11-8-4-3c0-3 0-4-2-7-3-2-5 0-7-2-3-1-4-1-4-3v-5h0zm38-110c6-3 13-2 17 0 3 2 13 4 16 12 3 7 4 15 2 22s-5 13-11 18c-5 4-49 44-61 42s-12 6-17-8-10-18-9-22 6-3 9-4c4-1 6 1 8-3l20-35c3-8 19-18 26-22h0zm-59 161 1 1h0v1h1l1 1h2l1-1h3v-1h0v-1h0-1v-1h0v0h0v-1h0v0h1v-1h0v-1l-1-1h1v-1h1v-1h1l1-1h3l3-2h2l1-1h0v-1h1v0-1 0h0v0-1 0h1v-1h2v-1 0h0v0-1h0v0h2v1h2v1h0v0h1v1h0v1h1v0h0l-1 1v0h1v0h0v1l1-1v1h2m-37 13h1v-1h1l1-1m0 0h0-1 0v-1h0v0-2h-1 0v-1h-1v-3h0-1 0-1l-1-1h-1 0-2v-1h0-1 0v-2h0l-1-1h0v-1h0-1 0-1 0-1 0-1 0-1v-1h-1 0v-1h-1 0l-1-1h0l1-1h0l2-2h1v-1h0v0h2v-2h0v-1 0h0-1 0v-1h-1 0-1l-1-1h0-1v1h-1 0-1 0-1v-1h0-1v-1h0v0h0v-1h0v-1h0-1l-1-1h0-1 0-1 0v-1h0v0h0v-1h0l-1-1h0-1v-1h0l-1-1m-5-29v1h1v0l-1 1h2-1v1h0v1h-1 0-1 0v1h0v2h0v1h0l-1 1-1 1h-1v1h-1v1h0-1v-1l-3 1h0l-1-1v1l-1-1v2l1 1v2h1v1h1v2l1 2m0 0 1-1h1v1h1v1h0l1 2h1v1h0l1 1h0l1 1h0l1 1h1v1h3m42-17h-1 0-1v-1h0-1 0v1l-1 1h0-1l-1 1h-1l-3-1h-1 0l-6 3h0v3h0v1h0v0h0-1 0-1v1l1 1v1h0-1 0l-2-2h0v-1h-1 0v-1h0l-1 1h0v1h0v0h0v1h0v1h0-1 0-2 0-1v-1h-1 0-1v1h0l1 1h0l-2 2h0v1h-1 0v-1h0v1h0-1v1h-1 0-1v1h-1 0l-1-1h0-2v-1l-1 1h-1v1h-1 0-1m-12-8h0l-1 1h-1 0l-1 1-1 1h-1m-14-54v1h0v0h0v1h0-1v0l1 1v1h1v1l2 1h1v-1h1v1h1v1h2v1h1v1h2v1h0v4h0-1 0-1 0v1l1 1h0v1h0l1 1 1 1 1 1h0l1 1 3 4 2 1 2 1 1 1v1h4v1h0m28-5h0l-5 1h-6 0v1h-1v1h0-1 0v1h0l-1 1h0v1h0-3 0v-1h0-1 0v0h0v-1h0l-1-1h0-1 0v-1h-1 0l-1 1h0-2 0-1 0v1h0-1v1h0-2m-26-30h-1 0-1 0l-1-1h-1 0-1l-1-1h0v1h-1 0v-1h-1 0v1h1v1h0l1 1h0v1h1v1h0v1h0v1h0-1 0-1 0-1 0-1v-1h0-1 0-1 0-1l-1 1h0-1 0l-1 2-2 2m17-9h0v-1h0v-1h0v-2 0h0v-1 0-1h1-1v-1h0l-1-1h0v-1h0l-1-1h0v0h0v-1h0l4-1h0l1-1h1v-1h0v-1l-1-1v-2h0-1v-1h0v-1h0v-1h0v-4h-1v-1h0l1-3v-1M65 67h0-2 0l-1 1h0-1v0h1v1h0-1 0v1h0v1h0v1h0-1 0v1h0-1 0v1h0-1 0v1h0l-1 1h0v1h0v1h0l1 1h0v1h1v1h0v1h0l1 1h0v1h0-2 0v1h1v1h0v1h0v1h0v-1 1h0v0h0v2h0l1 1h0l1 1h0v1h0v1h1-1 0v1h0v1h0v2h1v1h0v3"/>
    </g>
    <path stroke="#000" stroke-miterlimit="10" d="M779 182v7l-1 4v6l1 3v43h-1v1l-1 1h1v2h-1l-1 1h1v1h-1 1v2l1 1h1v37M502 292v3h-1v1h-1v2h-1v-2h-3l-1-1m18 3-1-2v-1h-1v-2l1-1v1h1v-1l1 1v-3l-1-1v1h-1l-1 1h-1v-2M255 104v1l-1 1-1 1v2h2v4l2 1v1l1-1v1l1 1v-1l1 1v1l1 1 1 1h2v1l1 2h1l1 1 1 1h1v1h1l1-1h3v-1l1-1h2l4-1 3 1h2v1l1-1h4l2-2h3l1-3v-2l2-1h2v-1h7l1-1v1h2v2h-1 3l1 1h2l2 1h2l1 1h1l3-1 1-2h3v-1l1 1h1l3-1h1l1 1h1v-2h1v-1l1-1v-3h2v-1h1v-2h-1v-1l-1-1 1-1v-1h2v-2l1 1v-1h1l1-1h1v-1h1v-1h-1v-1h-1v1l-1-1h1v-1h-1v-1h1v-3h1l1-1v-1h1v1h1l1-1h1v-1l1-1h-1v-1l1-2v-1h2l-1-1v-7h-1v-1h1l1-1v-3h1l1-1 1-1v-1h3v1l1 1v-1h1v-1h4l1 1h1v-1h1v-1l1 2 1-1h2l1 1 1-1h1l1 1 3-1h1v1h1l1 1 1 1h8"/>
    <path d="M347 57v1h1l1 3v4h1v2h-1v-1h-3v-3l-1-1v-4m-17 4 1 1h2v1h1v2h1v1h-1v1h3v1l1 1 1 1v1h1l1-1 2-1v-3l1-1v-1h-1v-4h-1v-1h1v-1h2l1-1v-1M162 118v-2l-1-1h-2l-1-1-1 1h-2v1l-1 2v1M96 31v-2h1-1v-2h2l1 2 1 1h2v1h3l1-1v1h1v2h1v1h-1 1v1h1l1-1 1 1h1v1h-1l1 1v3h-1l-1 2v1h1v1h1v1h1l1-1v-1l1-1h1l1-1 2-1h1v1h1v1l1 1v-1h1v1h1v-1h1l1-1v-2h1l1-1v-4"/>
    <path stroke="#A08070" stroke-dasharray="4,2,1,2" stroke-linecap="round" d="m736 189 2 1h3v5h3l2 1h3l2 2 2 1h3l2 1 3 1h2l3 1h2l3 1 2 1h4M724 226l1-2 1-2 1-3v-5l-1-2v-3l2-1 2-2 2-2 1-2v-5l1-3v-2l1-3h1M695 186l2 1 3 1h5l1 2-1 3h5l3-1h8l2-1 2 2h3l2-1h2v-1M729 218h2l3 1 2 1h8a11 11 0 0 1 5 1l2 2 3 1 2 1h3l2 1 3 1h5l2 1 3 1 2 1h2"/>
  </g>
  <path fill="none" stroke="#00809E" stroke-linejoin="round" stroke-width=".8" d="M767 139H20"/>
  <path fill="none" stroke="#00809E" stroke-linecap="round" stroke-linejoin="round" stroke-width=".8" d="M11 139H0M776 139h10"/>
  <text fill="#00809E" font-family="'ArialMT'" font-size="10" transform="translate(12 143)">0</text>
  <text fill="#00809E" font-family="'ArialMT'" font-size="10" transform="translate(769 143)">0</text>
</svg>
